<?xml version="1.0" encoding="UTF-8"?>
<svg version="1.1" xmlns="http://www.w3.org/2000/svg" width="512" height="512">
<path d="M0 0 C1.35158203 0.94359375 1.35158203 0.94359375 2.73046875 1.90625 C4.53372959 3.20842774 6.27693746 4.59341833 8 6 C8 6.66 8 7.32 8 8 C8.54140625 8.2165625 9.0828125 8.433125 9.640625 8.65625 C12.81645344 10.46499997 15.20728081 12.91723799 17.75 15.5 C18.25660156 15.99886719 18.76320313 16.49773437 19.28515625 17.01171875 C23 20.74658861 23 20.74658861 23 23 C23.66 23 24.32 23 25 23 C26.30932617 24.4777832 26.30932617 24.4777832 27.79296875 26.55078125 C28.60906616 27.68350464 28.60906616 27.68350464 29.44165039 28.83911133 C30.01778076 29.65532959 30.59391113 30.47154785 31.1875 31.3125 C31.77974365 32.14483154 32.3719873 32.97716309 32.98217773 33.8347168 C44.88384062 50.6521772 55.08478634 68.56525524 64.06884766 87.09814453 C65.01068659 89.02182709 65.97571485 90.93200824 66.94921875 92.83984375 C73.07952107 104.87244946 78.65077784 117.15478185 83.9609375 129.5703125 C88.22506342 139.47682375 93.08207569 148.8905718 98.38671875 158.28125 C108.68958863 176.71016445 116.62017662 201.0455042 111.84765625 222.31640625 C106.90621556 237.9605065 96.95423242 247.30111315 83 255 C81.6755776 255.3671433 80.3431645 255.70879902 79 256 C79.20157715 256.61931396 79.4031543 257.23862793 79.61083984 257.87670898 C80.53650484 260.72893752 81.45578355 263.58318701 82.375 266.4375 C82.69210937 267.41138672 83.00921875 268.38527344 83.3359375 269.38867188 C91.17564164 293.80608373 91.97834498 319.68174974 80 343 C75.24566049 351.79099789 70.03599277 360.82902415 63 368 C62.34 368 61.68 368 61 368 C61 368.66 61 369.32 61 370 C34.49532977 394.22692513 -1.34439183 403.82399616 -36 409 C-36.91301376 409.1374765 -37.82602753 409.274953 -38.76670837 409.41659546 C-53.21179829 411.54096644 -67.36800716 412.4524917 -81.96435547 412.33618164 C-85.13144326 412.31245172 -88.29768832 412.31567654 -91.46484375 412.32226562 C-108.93719754 412.29870432 -126.38498729 411.29374522 -143.625 408.3125 C-144.5946167 408.14588867 -145.5642334 407.97927734 -146.56323242 407.80761719 C-183.08256372 401.24507512 -219.5332544 389.65180666 -242 358 C-254.17048504 338.53806624 -254.06746109 315.95861285 -249.51367188 294.13916016 C-247.55209409 285.97027014 -243.9134139 278.39200403 -240 271 C-240.75023437 270.5153125 -241.50046875 270.030625 -242.2734375 269.53125 C-248.38606761 265.52801617 -254.19508075 261.40304199 -259.84375 256.76171875 C-261.98052654 254.97292638 -261.98052654 254.97292638 -264.28125 253.39453125 C-264.8484375 252.93433594 -265.415625 252.47414063 -266 252 C-266 251.34 -266 250.68 -266 250 C-266.639375 249.731875 -267.27875 249.46375 -267.9375 249.1875 C-270 248 -270 248 -271 245 C-271.99 244.67 -272.98 244.34 -274 244 C-288.3548851 228.08787884 -298.68302086 205.6036968 -298 184 C-296.48918372 167.62906533 -285.95702734 154.43868071 -275.734375 142.3125 C-265.21530128 129.71823486 -258.80045197 116.87601175 -253.85546875 101.34399414 C-248.32884755 84.08253855 -239.93586139 70.39827864 -229 56 C-228.23429687 54.96488281 -227.46859375 53.92976563 -226.6796875 52.86328125 C-223.33072085 48.40032779 -223.33072085 48.40032779 -222 47 C-221.34 47 -220.68 47 -220 47 C-219.731875 46.360625 -219.46375 45.72125 -219.1875 45.0625 C-218 43 -218 43 -215 42 C-215 41.34 -215 40.68 -215 40 C-214.34 40 -213.68 40 -213 40 C-213 39.34 -213 38.68 -213 38 C-208.52941176 34 -208.52941176 34 -206 34 C-206 33.34 -206 32.68 -206 32 C-204.01273937 30.40774187 -202.02893663 28.94490224 -199.9375 27.5 C-199.30263672 27.05640137 -198.66777344 26.61280273 -198.01367188 26.15576172 C-196.6742146 25.22360745 -195.33218926 24.29513393 -193.98779297 23.37011719 C-192.15154394 22.10445402 -190.3272814 20.82315875 -188.50390625 19.5390625 C-134.34737985 -18.0922916 -57.79561547 -40.44841895 0 0 Z " fill="#FEF2E4" transform="translate(351,58)"/>
<path d="M0 0 C1.35158203 0.94359375 1.35158203 0.94359375 2.73046875 1.90625 C4.53372959 3.20842774 6.27693746 4.59341833 8 6 C8 6.66 8 7.32 8 8 C8.54140625 8.2165625 9.0828125 8.433125 9.640625 8.65625 C12.81645344 10.46499997 15.20728081 12.91723799 17.75 15.5 C18.25660156 15.99886719 18.76320313 16.49773437 19.28515625 17.01171875 C23 20.74658861 23 20.74658861 23 23 C23.66 23 24.32 23 25 23 C26.30932617 24.4777832 26.30932617 24.4777832 27.79296875 26.55078125 C28.60906616 27.68350464 28.60906616 27.68350464 29.44165039 28.83911133 C30.01778076 29.65532959 30.59391113 30.47154785 31.1875 31.3125 C31.77974365 32.14483154 32.3719873 32.97716309 32.98217773 33.8347168 C44.88384062 50.6521772 55.08478634 68.56525524 64.06884766 87.09814453 C65.01068659 89.02182709 65.97571485 90.93200824 66.94921875 92.83984375 C73.07952107 104.87244946 78.65077784 117.15478185 83.9609375 129.5703125 C88.22506342 139.47682375 93.08207569 148.8905718 98.38671875 158.28125 C108.68958863 176.71016445 116.62017662 201.0455042 111.84765625 222.31640625 C106.90621556 237.9605065 96.95423242 247.30111315 83 255 C81.6755776 255.3671433 80.3431645 255.70879902 79 256 C79.20157715 256.61931396 79.4031543 257.23862793 79.61083984 257.87670898 C80.53650484 260.72893752 81.45578355 263.58318701 82.375 266.4375 C82.69210937 267.41138672 83.00921875 268.38527344 83.3359375 269.38867188 C91.17564164 293.80608373 91.97834498 319.68174974 80 343 C75.24566049 351.79099789 70.03599277 360.82902415 63 368 C62.34 368 61.68 368 61 368 C61 368.66 61 369.32 61 370 C34.49532977 394.22692513 -1.34439183 403.82399616 -36 409 C-36.91301376 409.1374765 -37.82602753 409.274953 -38.76670837 409.41659546 C-53.21179829 411.54096644 -67.36800716 412.4524917 -81.96435547 412.33618164 C-85.13144326 412.31245172 -88.29768832 412.31567654 -91.46484375 412.32226562 C-108.93719754 412.29870432 -126.38498729 411.29374522 -143.625 408.3125 C-144.5946167 408.14588867 -145.5642334 407.97927734 -146.56323242 407.80761719 C-183.08256372 401.24507512 -219.5332544 389.65180666 -242 358 C-254.17048504 338.53806624 -254.06746109 315.95861285 -249.51367188 294.13916016 C-247.55209409 285.97027014 -243.9134139 278.39200403 -240 271 C-240.75023437 270.5153125 -241.50046875 270.030625 -242.2734375 269.53125 C-248.38606761 265.52801617 -254.19508075 261.40304199 -259.84375 256.76171875 C-261.98052654 254.97292638 -261.98052654 254.97292638 -264.28125 253.39453125 C-264.8484375 252.93433594 -265.415625 252.47414063 -266 252 C-266 251.34 -266 250.68 -266 250 C-266.639375 249.731875 -267.27875 249.46375 -267.9375 249.1875 C-270 248 -270 248 -271 245 C-271.99 244.67 -272.98 244.34 -274 244 C-288.3548851 228.08787884 -298.68302086 205.6036968 -298 184 C-296.48918372 167.62906533 -285.95702734 154.43868071 -275.734375 142.3125 C-265.21530128 129.71823486 -258.80045197 116.87601175 -253.85546875 101.34399414 C-248.32884755 84.08253855 -239.93586139 70.39827864 -229 56 C-228.23429687 54.96488281 -227.46859375 53.92976563 -226.6796875 52.86328125 C-223.33072085 48.40032779 -223.33072085 48.40032779 -222 47 C-221.34 47 -220.68 47 -220 47 C-219.731875 46.360625 -219.46375 45.72125 -219.1875 45.0625 C-218 43 -218 43 -215 42 C-215 41.34 -215 40.68 -215 40 C-214.34 40 -213.68 40 -213 40 C-213 39.34 -213 38.68 -213 38 C-208.52941176 34 -208.52941176 34 -206 34 C-206 33.34 -206 32.68 -206 32 C-204.01273937 30.40774187 -202.02893663 28.94490224 -199.9375 27.5 C-199.30263672 27.05640137 -198.66777344 26.61280273 -198.01367188 26.15576172 C-196.6742146 25.22360745 -195.33218926 24.29513393 -193.98779297 23.37011719 C-192.15154394 22.10445402 -190.3272814 20.82315875 -188.50390625 19.5390625 C-134.34737985 -18.0922916 -57.79561547 -40.44841895 0 0 Z M-146 154 C-147.95532093 154.23390695 -149.91104438 154.46447779 -151.8671875 154.69140625 C-161.88742883 155.91280741 -171.3602659 157.98758783 -181.02734375 160.875 C-184.38939646 161.86595445 -187.71862121 162.53390895 -191.1875 163.0625 C-196.48234217 163.96254208 -200.78183229 165.21720778 -204.2890625 169.6171875 C-205.62666371 171.69694163 -206.80575383 173.83476435 -208 176 C-208.56847656 176.90105469 -209.13695312 177.80210937 -209.72265625 178.73046875 C-214.16974127 185.87790689 -216.96352483 192.84444777 -219 201 C-219.35578125 202.25296875 -219.7115625 203.5059375 -220.078125 204.796875 C-221.86585668 212.95527641 -221.39043337 221.61682303 -221.45629883 229.93725586 C-221.47810634 232.25148784 -221.51752608 234.5649471 -221.55859375 236.87890625 C-221.55870956 237.57496475 -221.55882538 238.27102325 -221.5589447 238.98817444 C-221.70405434 246.28863005 -224.2572007 252.15109401 -228.0625 258.3125 C-235.63068812 271.04959957 -242.79563582 283.40621095 -246 298 C-246.17080078 298.65266846 -246.34160156 299.30533691 -246.51757812 299.9777832 C-251.28658472 319.00893989 -248.72941787 339.01144884 -238.8125 355.875 C-233.83546702 363.0517038 -227.3924938 371.23272731 -220 376 C-219.34 376 -218.68 376 -218 376 C-218 376.66 -218 377.32 -218 378 C-215.84187078 379.5774398 -213.69747739 381.02014842 -211.4375 382.4375 C-210.82841797 382.83259766 -210.21933594 383.22769531 -209.59179688 383.63476562 C-205.5396672 386.21183434 -201.46432487 388.19362577 -197 390 C-196.0821875 390.41121094 -195.164375 390.82242188 -194.21875 391.24609375 C-173.86219473 400.16671064 -151.01317075 403.42677969 -129.0625 405.75 C-128.06141205 405.85772736 -127.0603241 405.96545471 -126.02890015 406.07644653 C-110.782738 407.68224679 -95.64176355 408.46628704 -80.3125 408.4375 C-79.42708527 408.43754028 -78.54167053 408.43758057 -77.62942505 408.43762207 C-61.05001773 408.3934501 -44.63402963 407.24581589 -28.4140625 403.703125 C-25.25134869 403.05176518 -22.14175224 402.63086719 -18.9375 402.25 C14.57374633 397.29149253 49.4246041 380.07706243 70 353 C70.55558594 352.29488281 71.11117188 351.58976563 71.68359375 350.86328125 C76.34840018 344.50218157 78.88214108 337.30729035 81.36572266 329.88818359 C81.89978178 328.29834015 82.46756661 326.71988318 83.04296875 325.14453125 C88.13679687 308.95428883 85.74631461 289.99019658 81 274 C80.80212891 273.3208252 80.60425781 272.64165039 80.40039062 271.94189453 C77.24890933 261.33241746 72.73812605 251.85280172 67.2109375 242.30078125 C64.06117613 236.31623465 62.56880525 231.82455732 62.62890625 225.01171875 C62.61151924 223.48502385 62.59393491 221.95833119 62.57617188 220.43164062 C62.56613918 218.06221244 62.56249607 215.6929348 62.56420898 213.32348633 C62.53915712 197.2819447 59.0958552 186.58487967 47.8203125 174.703125 C36.58746397 164.64272867 19.26309668 162.72621232 4.875 160 C3.54077499 159.74669922 3.54077499 159.74669922 2.17959595 159.48828125 C-3.3434667 158.44732228 -8.87224364 157.44211186 -14.40631104 156.46142578 C-16.81706408 156.0325449 -19.22569875 155.59323654 -21.63427734 155.15234375 C-62.10103189 147.86752685 -105.3384537 148.36473183 -146 154 Z " fill="#EA7254" transform="translate(351,58)"/>
<path d="M0 0 C1.35158203 0.94359375 1.35158203 0.94359375 2.73046875 1.90625 C4.53372959 3.20842774 6.27693746 4.59341833 8 6 C8 6.66 8 7.32 8 8 C8.54140625 8.2165625 9.0828125 8.433125 9.640625 8.65625 C12.81645344 10.46499997 15.20728081 12.91723799 17.75 15.5 C18.25660156 15.99886719 18.76320313 16.49773437 19.28515625 17.01171875 C23 20.74658861 23 20.74658861 23 23 C23.66 23 24.32 23 25 23 C26.30932617 24.4777832 26.30932617 24.4777832 27.79296875 26.55078125 C28.60906616 27.68350464 28.60906616 27.68350464 29.44165039 28.83911133 C30.01778076 29.65532959 30.59391113 30.47154785 31.1875 31.3125 C31.77974365 32.14483154 32.3719873 32.97716309 32.98217773 33.8347168 C44.88384062 50.6521772 55.08478634 68.56525524 64.06884766 87.09814453 C65.01068659 89.02182709 65.97571485 90.93200824 66.94921875 92.83984375 C73.07952107 104.87244946 78.65077784 117.15478185 83.9609375 129.5703125 C88.22506342 139.47682375 93.08207569 148.8905718 98.38671875 158.28125 C108.68958863 176.71016445 116.62017662 201.0455042 111.84765625 222.31640625 C106.90621556 237.9605065 96.95423242 247.30111315 83 255 C81.6755776 255.3671433 80.3431645 255.70879902 79 256 C79.20157715 256.61931396 79.4031543 257.23862793 79.61083984 257.87670898 C80.53650484 260.72893752 81.45578355 263.58318701 82.375 266.4375 C82.69210937 267.41138672 83.00921875 268.38527344 83.3359375 269.38867188 C91.17564164 293.80608373 91.97834498 319.68174974 80 343 C75.24566049 351.79099789 70.03599277 360.82902415 63 368 C62.34 368 61.68 368 61 368 C61 368.66 61 369.32 61 370 C34.49532977 394.22692513 -1.34439183 403.82399616 -36 409 C-36.91301376 409.1374765 -37.82602753 409.274953 -38.76670837 409.41659546 C-53.21179829 411.54096644 -67.36800716 412.4524917 -81.96435547 412.33618164 C-85.13144326 412.31245172 -88.29768832 412.31567654 -91.46484375 412.32226562 C-108.93719754 412.29870432 -126.38498729 411.29374522 -143.625 408.3125 C-144.5946167 408.14588867 -145.5642334 407.97927734 -146.56323242 407.80761719 C-183.08256372 401.24507512 -219.5332544 389.65180666 -242 358 C-254.17048504 338.53806624 -254.06746109 315.95861285 -249.51367188 294.13916016 C-247.55209409 285.97027014 -243.9134139 278.39200403 -240 271 C-240.75023437 270.5153125 -241.50046875 270.030625 -242.2734375 269.53125 C-248.38606761 265.52801617 -254.19508075 261.40304199 -259.84375 256.76171875 C-261.98052654 254.97292638 -261.98052654 254.97292638 -264.28125 253.39453125 C-264.8484375 252.93433594 -265.415625 252.47414063 -266 252 C-266 251.34 -266 250.68 -266 250 C-266.639375 249.731875 -267.27875 249.46375 -267.9375 249.1875 C-270 248 -270 248 -271 245 C-271.99 244.67 -272.98 244.34 -274 244 C-288.3548851 228.08787884 -298.68302086 205.6036968 -298 184 C-296.48918372 167.62906533 -285.95702734 154.43868071 -275.734375 142.3125 C-265.21530128 129.71823486 -258.80045197 116.87601175 -253.85546875 101.34399414 C-248.32884755 84.08253855 -239.93586139 70.39827864 -229 56 C-228.23429687 54.96488281 -227.46859375 53.92976563 -226.6796875 52.86328125 C-223.33072085 48.40032779 -223.33072085 48.40032779 -222 47 C-221.34 47 -220.68 47 -220 47 C-219.731875 46.360625 -219.46375 45.72125 -219.1875 45.0625 C-218 43 -218 43 -215 42 C-215 41.34 -215 40.68 -215 40 C-214.34 40 -213.68 40 -213 40 C-213 39.34 -213 38.68 -213 38 C-208.52941176 34 -208.52941176 34 -206 34 C-206 33.34 -206 32.68 -206 32 C-204.01273937 30.40774187 -202.02893663 28.94490224 -199.9375 27.5 C-199.30263672 27.05640137 -198.66777344 26.61280273 -198.01367188 26.15576172 C-196.6742146 25.22360745 -195.33218926 24.29513393 -193.98779297 23.37011719 C-192.15154394 22.10445402 -190.3272814 20.82315875 -188.50390625 19.5390625 C-134.34737985 -18.0922916 -57.79561547 -40.44841895 0 0 Z M-138 -3 C-139.5889415 -2.39582961 -141.19478348 -1.83475494 -142.8125 -1.3125 C-167.06378212 7.35097263 -189.9812466 22.59699766 -208.80078125 39.9921875 C-210.67301532 41.70147402 -212.58530535 43.29143449 -214.5625 44.875 C-223.28334918 52.32959005 -229.67511772 62.52498179 -236 72 C-236.51820313 72.76570313 -237.03640625 73.53140625 -237.5703125 74.3203125 C-240.01551726 78.0540084 -241.76903161 81.6726526 -243.20874023 85.89550781 C-243.97433808 87.93174769 -244.87878723 89.7719611 -245.8984375 91.69140625 C-248.07380951 95.98256463 -249.60498537 100.36066836 -251.0625 104.9375 C-251.55338542 106.44661458 -252.04427083 107.95572917 -252.53515625 109.46484375 C-253.27888552 111.75776108 -254.01607119 114.05163674 -254.73242188 116.35327148 C-258.36271517 127.76259364 -264.8946633 136.19141409 -273.05981445 144.69140625 C-281.56325605 153.61661855 -288.66614906 162.95102784 -292 175 C-292.54720703 176.61068359 -292.54720703 176.61068359 -293.10546875 178.25390625 C-294.16412928 182.68733615 -294.11173814 186.48491314 -293.8125 191 C-293.78091797 191.76828125 -293.74933594 192.5365625 -293.71679688 193.328125 C-293.41164473 198.52897897 -292.26120332 202.31271394 -290 207 C-289.731875 207.9075 -289.46375 208.815 -289.1875 209.75 C-286.00536229 218.45900847 -280.96423022 225.96809893 -275 233 C-274.33226562 233.79019531 -273.66453125 234.58039063 -272.9765625 235.39453125 C-264.88381679 244.67051235 -256.21817949 252.771434 -246 259.625 C-245.04746338 260.26405273 -245.04746338 260.26405273 -244.07568359 260.91601562 C-241.07346872 262.86556837 -238.49272022 264.25874606 -235 265 C-233.68568828 263.20966193 -232.3736047 261.41768797 -231.0625 259.625 C-229.96615234 258.12839844 -229.96615234 258.12839844 -228.84765625 256.6015625 C-226.09878693 252.73106151 -225.89722057 250.7278536 -226 246 C-225.34 246 -224.68 246 -224 246 C-222.29216023 240.06672909 -221.71465586 234.05848696 -223 228 C-225.40383459 225.49165086 -227.73665203 224.22576741 -230.83203125 222.6640625 C-235.32958453 220.30159925 -238.87254448 217.04410735 -242.6875 213.72265625 C-244.92037173 211.70130204 -244.92037173 211.70130204 -248 212 C-248 211.34 -248 210.68 -248 210 C-248.66 209.67 -249.32 209.34 -250 209 C-250.62056023 199.77778546 -249.5208274 192.68381673 -243.3125 185.5625 C-234.37435794 177.33403875 -222.61738904 171.68689264 -211.1484375 168.03515625 C-207.92465933 167.02880169 -207.92465933 167.02880169 -204.62890625 165.53515625 C-200.66079217 163.85650304 -196.69302055 162.57958025 -192.5625 161.375 C-191.85029297 161.1584375 -191.13808594 160.941875 -190.40429688 160.71875 C-185.59702281 159.30407534 -180.97812114 158.55547579 -176 158 C-173.66182791 157.35050775 -171.32873375 156.68255989 -169 156 C-142.55121152 149.86332046 -115.36297021 148.49719891 -88.31575012 148.50055695 C-86.35197482 148.50001097 -84.38820369 148.4938074 -82.42443848 148.48748779 C-61.09941623 148.45646536 -39.0830203 148.94764938 -18.17475891 153.56970215 C-15.16716903 154.16478396 -12.15966019 154.42704239 -9.10546875 154.65625 C-7 155 -7 155 -4.59765625 155.9765625 C-1.76922417 157.09092221 0.73714793 157.4925395 3.75 157.875 C19.61585045 160.16972187 36.11977724 163.94340252 50.578125 170.89453125 C53.67025753 172.30594013 56.70387197 173.19427981 60 174 C60 174.66 60 175.32 60 176 C61.73282986 177.06449583 63.51454808 178.04962135 65.3125 179 C71.91260044 182.72333457 80.52787032 188.05574064 84 195 C87.3932334 193.59590342 89.05582501 192.11219243 91 189 C92.02679695 182.39978401 90.69275338 175.38338939 89.5 168.875 C89.33129395 167.94502197 89.16258789 167.01504395 88.98876953 166.05688477 C86.60505557 153.88009614 82.65796131 141.87443785 77.93017578 130.40454102 C77 128 77 128 76.3125 124.5625 C75.18481208 119.79012471 72.90918944 115.61212616 70.67578125 111.28662109 C68.48207039 107.02373817 66.60410327 102.73771936 64.87890625 98.26953125 C56.29445039 76.10255857 44.14388796 55.0309179 30 36 C29.34 35.10539062 28.68 34.21078125 28 33.2890625 C21.21512039 24.33679079 13.61223414 16.42629441 5.1875 9.03125 C3 7 3 7 2 5 C0.46538146 4.09317996 -1.0753246 3.19583573 -2.63671875 2.3359375 C-5.6564098 0.62893859 -8.6097235 -1.18077373 -11.5625 -3 C-13.17318359 -3.99 -13.17318359 -3.99 -14.81640625 -5 C-16.89735273 -6.30729398 -18.94585983 -7.66810734 -20.953125 -9.0859375 C-24.29537269 -11.18555464 -27.43886565 -12.40047245 -31.1875 -13.625 C-32.39792969 -14.02976562 -33.60835938 -14.43453125 -34.85546875 -14.8515625 C-64.0534912 -23.40854975 -111.85465994 -19.38560696 -138 -3 Z M-146 154 C-147.95532093 154.23390695 -149.91104438 154.46447779 -151.8671875 154.69140625 C-161.88742883 155.91280741 -171.3602659 157.98758783 -181.02734375 160.875 C-184.38939646 161.86595445 -187.71862121 162.53390895 -191.1875 163.0625 C-196.48234217 163.96254208 -200.78183229 165.21720778 -204.2890625 169.6171875 C-205.62666371 171.69694163 -206.80575383 173.83476435 -208 176 C-208.56847656 176.90105469 -209.13695312 177.80210937 -209.72265625 178.73046875 C-214.16974127 185.87790689 -216.96352483 192.84444777 -219 201 C-219.35578125 202.25296875 -219.7115625 203.5059375 -220.078125 204.796875 C-221.86585668 212.95527641 -221.39043337 221.61682303 -221.45629883 229.93725586 C-221.47810634 232.25148784 -221.51752608 234.5649471 -221.55859375 236.87890625 C-221.55870956 237.57496475 -221.55882538 238.27102325 -221.5589447 238.98817444 C-221.70405434 246.28863005 -224.2572007 252.15109401 -228.0625 258.3125 C-235.63068812 271.04959957 -242.79563582 283.40621095 -246 298 C-246.17080078 298.65266846 -246.34160156 299.30533691 -246.51757812 299.9777832 C-251.28658472 319.00893989 -248.72941787 339.01144884 -238.8125 355.875 C-233.83546702 363.0517038 -227.3924938 371.23272731 -220 376 C-219.34 376 -218.68 376 -218 376 C-218 376.66 -218 377.32 -218 378 C-215.84187078 379.5774398 -213.69747739 381.02014842 -211.4375 382.4375 C-210.82841797 382.83259766 -210.21933594 383.22769531 -209.59179688 383.63476562 C-205.5396672 386.21183434 -201.46432487 388.19362577 -197 390 C-196.0821875 390.41121094 -195.164375 390.82242188 -194.21875 391.24609375 C-173.86219473 400.16671064 -151.01317075 403.42677969 -129.0625 405.75 C-128.06141205 405.85772736 -127.0603241 405.96545471 -126.02890015 406.07644653 C-110.782738 407.68224679 -95.64176355 408.46628704 -80.3125 408.4375 C-79.42708527 408.43754028 -78.54167053 408.43758057 -77.62942505 408.43762207 C-61.05001773 408.3934501 -44.63402963 407.24581589 -28.4140625 403.703125 C-25.25134869 403.05176518 -22.14175224 402.63086719 -18.9375 402.25 C14.57374633 397.29149253 49.4246041 380.07706243 70 353 C70.55558594 352.29488281 71.11117188 351.58976563 71.68359375 350.86328125 C76.34840018 344.50218157 78.88214108 337.30729035 81.36572266 329.88818359 C81.89978178 328.29834015 82.46756661 326.71988318 83.04296875 325.14453125 C88.13679687 308.95428883 85.74631461 289.99019658 81 274 C80.80212891 273.3208252 80.60425781 272.64165039 80.40039062 271.94189453 C77.24890933 261.33241746 72.73812605 251.85280172 67.2109375 242.30078125 C64.06117613 236.31623465 62.56880525 231.82455732 62.62890625 225.01171875 C62.61151924 223.48502385 62.59393491 221.95833119 62.57617188 220.43164062 C62.56613918 218.06221244 62.56249607 215.6929348 62.56420898 213.32348633 C62.53915712 197.2819447 59.0958552 186.58487967 47.8203125 174.703125 C36.58746397 164.64272867 19.26309668 162.72621232 4.875 160 C3.54077499 159.74669922 3.54077499 159.74669922 2.17959595 159.48828125 C-3.3434667 158.44732228 -8.87224364 157.44211186 -14.40631104 156.46142578 C-16.81706408 156.0325449 -19.22569875 155.59323654 -21.63427734 155.15234375 C-62.10103189 147.86752685 -105.3384537 148.36473183 -146 154 Z " fill="#995940" transform="translate(351,58)"/>
<path d="M0 0 C8.43840548 7.19857979 14.39396134 15.46336517 18.29296875 25.84765625 C18.91171875 27.48734375 18.91171875 27.48734375 19.54296875 29.16015625 C20.60824747 34.39777662 20.45037001 39.52224679 20.29296875 44.84765625 C17.56264602 44.56469006 14.83404727 44.27161743 12.10546875 43.97265625 C11.33654297 43.89402344 10.56761719 43.81539063 9.77539062 43.734375 C5.56935285 43.26503173 2.22691886 42.44250089 -1.70703125 40.84765625 C-4.42508968 40.42928307 -7.10133079 40.07115858 -9.83203125 39.78515625 C-17.35462161 38.96512613 -17.35462161 38.96512613 -20.70703125 37.84765625 C-40.88386769 34.88969457 -61.15855637 34.32036143 -81.51953125 34.41015625 C-82.87558957 34.41166995 -84.23164849 34.412723 -85.58770752 34.41333008 C-104.95110624 34.43414842 -123.82746023 35.35324231 -142.95214844 38.47265625 C-146.58681016 38.96741346 -150.04601619 38.99157822 -153.70703125 38.84765625 C-154.4530557 24.42451682 -150.58548634 10.67963563 -141.0390625 -0.3515625 C-132.05406966 -10.09148233 -121.2477309 -16.84328979 -108.70703125 -21.15234375 C-107.71574219 -21.51199219 -106.72445312 -21.87164062 -105.703125 -22.2421875 C-71.56584171 -34.24791541 -27.57004088 -21.92076844 0 0 Z " fill="#F9EEF8" transform="translate(345.70703125,172.15234375)"/>
<path d="M0 0 C1.79102142 -0.0230294 1.79102142 -0.0230294 3.6182251 -0.04652405 C33.26143721 -0.35597141 61.9265911 0.88738326 91.15234375 6.30859375 C92.04516052 6.47266724 92.93797729 6.63674072 93.85784912 6.80578613 C145.86434211 16.4101468 145.86434211 16.4101468 156.83984375 32.15625 C161.40980962 39.65044998 164.31452114 45.99023299 164.25 54.8203125 C164.24787758 55.91264946 164.24787758 55.91264946 164.24571228 57.02705383 C164.24012034 59.35010914 164.22756937 61.67306763 164.21484375 63.99609375 C164.20982771 65.57226423 164.20526498 67.14843623 164.20117188 68.72460938 C164.19015355 72.58597473 164.17289449 76.44726783 164.15234375 80.30859375 C163.82234375 80.30859375 163.49234375 80.30859375 163.15234375 80.30859375 C163.15234375 72.71859375 163.15234375 65.12859375 163.15234375 57.30859375 C158.20234375 55.82359375 158.20234375 55.82359375 153.15234375 54.30859375 C149.23046875 52.9140625 149.23046875 52.9140625 147.34790039 52.21655273 C137.32606436 48.50536712 127.10633174 45.73818109 116.78027344 43.015625 C114.38669794 42.37164556 112.00687157 41.69518378 109.62890625 40.99609375 C91.60699035 35.71190265 73.13221819 32.54882778 54.62930298 29.46212769 C53.05084129 29.19831588 51.47283393 28.93176723 49.89535522 28.66213989 C40.59137164 27.08044145 31.42231118 25.97243201 21.98487854 25.61175537 C16.48803102 25.39738424 16.48803102 25.39738424 14.24441528 24.80393982 C11.77089664 24.21827737 9.52832082 24.17404356 6.98608398 24.16333008 C5.43551552 24.1537603 5.43551552 24.1537603 3.85362244 24.14399719 C2.73403641 24.14288437 1.61445038 24.14177155 0.4609375 24.140625 C-0.71234604 24.1372966 -1.88562958 24.1339682 -3.09446716 24.13053894 C-5.59365447 24.1254683 -8.09284857 24.12313066 -10.59204102 24.12329102 C-14.3160421 24.12114791 -18.039725 24.10311722 -21.76367188 24.08398438 C-43.68594632 24.03124822 -65.44291867 25.26556539 -87.16015625 28.30859375 C-89.04831055 28.55609375 -89.04831055 28.55609375 -90.97460938 28.80859375 C-101.6532306 30.10897237 -101.6532306 30.10897237 -110.84765625 35.30859375 C-109.38983356 31.17809611 -107.30436867 27.92140613 -104.84765625 24.30859375 C-104.31140625 23.13296875 -103.77515625 21.95734375 -103.22265625 20.74609375 C-100.48027185 15.92291184 -95.90330155 14.11881767 -90.84765625 12.30859375 C-88.28468613 11.69398264 -85.74873742 11.27585527 -83.140625 10.89453125 C-80.63643329 10.44894554 -78.33279833 9.91719736 -75.8984375 9.22265625 C-64.82317747 6.09535288 -53.82021952 4.35941479 -42.41015625 3.05859375 C-41.68690155 2.97587219 -40.96364685 2.89315063 -40.21847534 2.80792236 C-26.82672744 1.29608864 -13.48282316 0.1700305 0 0 Z " fill="#E8D6C1" transform="translate(248.84765625,208.69140625)"/>
<path d="M0 0 C7.65368008 5.53637104 12.4459556 12.81385853 14.6875 21.9375 C14.91901452 24.67529382 15.05730027 27.26754423 15.0625 30 C15.08699219 30.68126953 15.11148438 31.36253906 15.13671875 32.06445312 C15.16604172 37.15198896 13.9421932 40.06625289 10.6875 43.9375 C8 44.6875 8 44.6875 4.6875 43.9375 C2.26213914 42.52962786 0.0024791 41.00181115 -2.26171875 39.34765625 C-8.41137473 35.11903566 -18.04822698 36.48102633 -25.1953125 37.24609375 C-28.67111523 37.89422198 -30.88165017 38.49359411 -33.375 41.0625 C-33.684375 41.68125 -33.99375 42.3 -34.3125 42.9375 C-33.73242188 43.10765625 -33.15234375 43.2778125 -32.5546875 43.453125 C-22.49587248 46.57368147 -15.34453843 52.15736834 -9.9140625 61.2890625 C-6.30712913 69.14245644 -6.46300059 77.30386685 -8 85.6875 C-12.33443077 96.42037619 -18.53333659 103.22285551 -28.375 109.1875 C-36.77478032 112.43902787 -47.23931045 112.09724829 -55.5625 109 C-65.18192378 104.44409876 -71.197272 97.2955467 -75.26953125 87.53125 C-77.8452731 78.65603465 -77.71663289 69.94293237 -73.8125 61.4375 C-67.49244265 50.49264775 -59.25567667 44.81576708 -47.25390625 41.453125 C-46.61324219 41.28296875 -45.97257812 41.1128125 -45.3125 40.9375 C-45.09335938 39.68195313 -44.87421875 38.42640625 -44.6484375 37.1328125 C-41.92562632 22.41463611 -37.67001246 11.50790002 -25.1640625 2.3671875 C-17.73782767 -2.46400617 -8.11432224 -4.76853234 0 0 Z " fill="#F9C8BF" transform="translate(209.3125,268.0625)"/>
<path d="M0 0 C8.04464879 3.21701405 12.53710736 14.69915564 15.89746094 22.00097656 C20.96788484 35.60108555 18.58764267 51.77485123 12.85839844 64.74316406 C5.24372838 80.99005474 -6.08570207 95.05082682 -23.14160156 101.74316406 C-25.12959974 102.44481048 -27.12858673 103.11689278 -29.14160156 103.74316406 C-29.76035156 103.94296875 -30.37910156 104.14277344 -31.01660156 104.34863281 C-42.46323798 106.47383553 -54.28410887 105.08789532 -64.46582031 99.45800781 C-66.50048605 98.02294887 -67.81050607 96.84439337 -69.14160156 94.74316406 C-70.03497414 83.84401867 -63.59418222 70.95146417 -58.14160156 61.74316406 C-57.70847656 60.67066406 -57.27535156 59.59816406 -56.82910156 58.49316406 C-53.20035734 49.74494827 -47.1036122 42.0184441 -41.14160156 34.74316406 C-40.73925293 34.24526367 -40.3369043 33.74736328 -39.92236328 33.234375 C-31.24670914 22.5274267 -21.8449213 13.84670208 -10.76660156 5.61816406 C-9.9808374 5.02455078 -9.19507324 4.4309375 -8.38549805 3.81933594 C-7.63727783 3.27599609 -6.88905762 2.73265625 -6.11816406 2.17285156 C-5.44865723 1.68026855 -4.77915039 1.18768555 -4.08935547 0.68017578 C-2.14160156 -0.25683594 -2.14160156 -0.25683594 0 0 Z " fill="#F9EFF7" transform="translate(167.1416015625,80.2568359375)"/>
<path d="M0 0 C10.28279026 5.67737068 20.50887259 14.45622493 24 26 C24.63557388 30.33827323 24.92444903 34.61804349 25 39 C26.299375 38.938125 27.59875 38.87625 28.9375 38.8125 C38.82016194 38.85889747 46.74475386 43.27338808 53.98046875 49.78125 C60.33470611 56.39290849 63.1588513 63.99925509 63.4375 73.125 C63.03518176 83.18295607 59.26781853 91.43540296 52.3359375 98.7578125 C44.98501944 105.43741385 37.23199074 108.32430502 27.27734375 108.15234375 C19.96885374 107.66343962 13.82237884 106.7133543 8 102 C7.195625 101.46375 6.39125 100.9275 5.5625 100.375 C-1.86623249 93.4898333 -5.41027753 86.32784772 -6.2109375 76.37890625 C-6.58076378 66.35092448 -4.58942769 57.77645905 1.95703125 50.015625 C5.28423908 46.73294958 10.08397342 42 15 42 C14.67 41.34 14.34 40.68 14 40 C4.84800108 37.18994963 -6.32844457 34.47989081 -15.375 38.75 C-17.73786287 40.09745744 -19.58098892 41.48640933 -21.6875 43.25 C-24 45 -24 45 -26.625 45.5 C-29 45 -29 45 -30.75 43.1875 C-34.80714764 36.08749163 -34.22050416 24.71531362 -32.19921875 16.90625 C-28.75153817 9.41850386 -22.69351169 3.43771771 -15.875 -1.0625 C-10.23681775 -2.90103769 -5.37008085 -2.36283558 0 0 Z " fill="#F9C8BF" transform="translate(360,267)"/>
<path d="M0 0 C0 8.61865383 -10.39347259 18.19690374 -16.21484375 24.24609375 C-27.43879599 35.34411104 -40.66701998 42.24321093 -55.10400391 48.21533203 C-56.7865283 48.91165361 -58.46216687 49.62456194 -60.13671875 50.33984375 C-76.43471136 57.00817275 -93.6023261 60.70212053 -111 63 C-112.39986186 63.19443417 -113.79960563 63.38972079 -115.19921875 63.5859375 C-118.79733824 64.08000764 -122.3953182 64.55647092 -126 65 C-126.65953674 65.08286255 -127.31907349 65.1657251 -127.99859619 65.25109863 C-133.29301782 65.88323721 -138.52169229 66.19863513 -143.8515625 66.2734375 C-145.10552071 66.29229759 -145.10552071 66.29229759 -146.3848114 66.3115387 C-240.04562795 67.43574109 -240.04562795 67.43574109 -275 46 C-276.546875 45.38125 -276.546875 45.38125 -278.125 44.75 C-283.44777688 42.55479712 -288.30799366 39.30900989 -293 36 C-293 35.67 -293 35.34 -293 35 C-285.38637467 35.74179861 -277.90957515 37.00498047 -270.375 38.3125 C-236.7761449 44.02872861 -203.51377755 47.15404647 -169.4375 47.25 C-167.8355629 47.2580365 -167.8355629 47.2580365 -166.20126343 47.26623535 C-147.47262165 47.33751878 -129.44907653 45.80574688 -111 42.625 C-109.70819824 42.40368408 -108.41639648 42.18236816 -107.08544922 41.9543457 C-103.38833111 41.31350882 -99.69384148 40.65942689 -96 40 C-95.0709082 39.83773926 -94.14181641 39.67547852 -93.18457031 39.50830078 C-59.67777499 33.5601545 -27.59018356 19.7228119 0 0 Z " fill="#E7D5C0" transform="translate(426,400)"/>
<path d="M0 0 C2.10386113 2.66298693 3.71132083 5.23605872 5.12890625 8.31640625 C5.51933105 9.15389404 5.90975586 9.99138184 6.31201172 10.85424805 C6.72467285 11.74797119 7.13733398 12.64169434 7.5625 13.5625 C10.98324424 20.87785506 14.55918281 28.07045418 18.375 35.1875 C28.19819594 53.66655724 35.92564484 76.79068358 31.3515625 98.0078125 C29.09143227 104.17004792 25.32056841 109.12221542 21 114 C20.3296875 114.76441406 19.659375 115.52882813 18.96875 116.31640625 C13.43807428 122.23783624 7.29155665 126.46228687 0 130 C-0.66 130 -1.32 130 -2 130 C-2.33 130.66 -2.66 131.32 -3 132 C-3.21914063 131.38253906 -3.43828125 130.76507813 -3.6640625 130.12890625 C-5.75742152 124.53810595 -8.21293351 119.83440516 -11.73046875 115.0078125 C-14.43063814 110.73739076 -14.14709802 106.21968255 -14.17578125 101.3046875 C-14.19899714 99.76821573 -14.22311517 98.23175738 -14.24804688 96.6953125 C-14.28297448 94.29287957 -14.31241034 91.89093578 -14.32592773 89.48828125 C-14.43277534 73.57620732 -17.71299142 62.84311688 -28.95703125 50.92578125 C-39.75986779 41.4035869 -57.37596586 39.60512471 -71.125 37 C-72.01448334 36.83113281 -72.90396667 36.66226563 -73.82040405 36.48828125 C-79.3434667 35.44732228 -84.87224364 34.44211186 -90.40631104 33.46142578 C-92.81706408 33.0325449 -95.22569875 32.59323654 -97.63427734 32.15234375 C-138.10103189 24.86752685 -181.3384537 25.36473183 -222 31 C-223.95532093 31.23390695 -225.91104438 31.46447779 -227.8671875 31.69140625 C-237.0793623 32.8145067 -245.82375552 34.59333766 -254.72412109 37.21850586 C-260.99716123 39.06146904 -267.43295678 40.82583505 -274 41 C-274.99 40.34 -275.98 39.68 -277 39 C-274.33557431 38.179478 -271.66882724 37.36847695 -269 36.5625 C-268.25621094 36.33240234 -267.51242187 36.10230469 -266.74609375 35.86523438 C-261.81210579 34.38503799 -257.11877325 33.5590095 -252 33 C-249.66182791 32.35050775 -247.32873375 31.68255989 -245 31 C-218.55121152 24.86332046 -191.36297021 23.49719891 -164.31575012 23.50055695 C-162.35197482 23.50001097 -160.38820369 23.4938074 -158.42443848 23.48748779 C-137.09941623 23.45646536 -115.0830203 23.94764938 -94.17475891 28.56970215 C-91.16716903 29.16478396 -88.15966019 29.42704239 -85.10546875 29.65625 C-83 30 -83 30 -80.59765625 30.9765625 C-77.76922417 32.09092221 -75.26285207 32.4925395 -72.25 32.875 C-55.37646224 35.31546648 -38.3551398 39.57009364 -23 47 C-20.67600253 48.02385903 -18.33960344 49.01216744 -16 50 C-16 50.66 -16 51.32 -16 52 C-14.7934375 52.2784375 -14.7934375 52.2784375 -13.5625 52.5625 C-8.64147164 54.54817811 -5.03680606 57.60301451 -1 61 C-0.14921875 61.71542969 0.7015625 62.43085938 1.578125 63.16796875 C6.25249392 67.20291928 6.25249392 67.20291928 8 69 C8 69.66 8 70.32 8 71 C11.52381687 68.45395403 11.52381687 68.45395403 14 65 C14.50556062 58.18642161 13.72637012 51.56682282 12.5 44.875 C12.33129395 43.94502197 12.16258789 43.01504395 11.98876953 42.05688477 C9.61736226 29.94296273 5.81185857 17.77028539 0.88720703 6.43969727 C0 4 0 4 0 0 Z " fill="#CA6048" transform="translate(427,182)"/>
<path d="M0 0 C4.39575534 0.26578986 7.10982005 3.50215428 10.125 6.375 C10.70121094 6.91954834 11.27742188 7.46409668 11.87109375 8.02514648 C23.02080162 18.66959458 31.59186785 30.12584415 40 43 C40.39461426 43.60102539 40.78922852 44.20205078 41.19580078 44.82128906 C47.04025585 53.79159712 51.98342611 63.260473 56.86132812 72.77978516 C57.62741064 74.27351466 58.40233196 75.76274054 59.18554688 77.24755859 C62 82.66500989 62 82.66500989 62 86 C42.01224545 86.47278168 24.0039946 85.91522034 7.6875 72.875 C-2.54937774 63.07841808 -9.68936979 50.08643755 -10.203125 35.828125 C-10.43717367 22.18960515 -8.15912763 12.81041714 -1 1 C-0.67 0.67 -0.34 0.34 0 0 Z " fill="#F8ECF7" transform="translate(350,64)"/>
<path d="M0 0 C1.35158203 0.94359375 1.35158203 0.94359375 2.73046875 1.90625 C4.53372959 3.20842774 6.27693746 4.59341833 8 6 C8 6.66 8 7.32 8 8 C8.54140625 8.2165625 9.0828125 8.433125 9.640625 8.65625 C12.81645344 10.46499997 15.20728081 12.91723799 17.75 15.5 C18.25660156 15.99886719 18.76320313 16.49773437 19.28515625 17.01171875 C23 20.74658861 23 20.74658861 23 23 C23.66 23 24.32 23 25 23 C26.30932617 24.4777832 26.30932617 24.4777832 27.79296875 26.55078125 C28.60906616 27.68350464 28.60906616 27.68350464 29.44165039 28.83911133 C30.01778076 29.65532959 30.59391113 30.47154785 31.1875 31.3125 C31.77974365 32.14483154 32.3719873 32.97716309 32.98217773 33.8347168 C44.88384062 50.6521772 55.08478634 68.56525524 64.06884766 87.09814453 C65.01068659 89.02182709 65.97571485 90.93200824 66.94921875 92.83984375 C73.07952107 104.87244946 78.65077784 117.15478185 83.9609375 129.5703125 C88.22506342 139.47682375 93.08207569 148.8905718 98.38671875 158.28125 C108.68958863 176.71016445 116.62017662 201.0455042 111.84765625 222.31640625 C106.90621556 237.9605065 96.95423242 247.30111315 83 255 C80.578125 255.75 80.578125 255.75 79 256 C78.67 257.32 78.34 258.64 78 260 C77.67 258.68 77.34 257.36 77 256 C76.01 256 75.02 256 74 256 C74 255.34 74 254.68 74 254 C75.32451172 253.32517578 75.32451172 253.32517578 76.67578125 252.63671875 C88.83902442 246.20696795 100.34665071 237.20310516 105.8125 224.125 C113.55391091 198.06962272 99.08483424 169.2661037 87.13012695 146.99316406 C82.52766654 138.30587937 78.45267066 129.37416021 74.37841797 120.4309082 C73.8526416 119.28066162 73.32686523 118.13041504 72.78515625 116.9453125 C72.31988525 115.91937988 71.85461426 114.89344727 71.37524414 113.83642578 C70.05627923 111.11607529 68.57475411 108.57812748 67 106 C66.31733062 104.43219655 65.67092053 102.8480831 65.0625 101.25 C55.96779358 78.01932668 43.86984939 56.00771526 29 36 C28.34 35.10539062 27.68 34.21078125 27 33.2890625 C20.19481603 24.31000031 12.5852163 16.3962369 4.08984375 9.03125 C3.40019531 8.3609375 2.71054687 7.690625 2 7 C2 6.34 2 5.68 2 5 C1.41589355 4.87923096 0.83178711 4.75846191 0.22998047 4.6340332 C-2.06438677 3.9816934 -3.67278878 3.13034944 -5.6796875 1.85546875 C-6.36160156 1.42556641 -7.04351562 0.99566406 -7.74609375 0.55273438 C-8.79990234 -0.12305664 -8.79990234 -0.12305664 -9.875 -0.8125 C-10.56980469 -1.25142578 -11.26460937 -1.69035156 -11.98046875 -2.14257812 C-15.05574913 -4.091414 -18.08367455 -6.05909582 -21.05859375 -8.16015625 C-24.35615527 -10.22277441 -27.49279692 -11.41808962 -31.1875 -12.625 C-32.39792969 -13.02976562 -33.60835937 -13.43453125 -34.85546875 -13.8515625 C-65.77629717 -22.91344794 -103.3948884 -16.04391311 -133 -5 C-134.68307885 -4.02787687 -136.35305627 -3.03215994 -138 -2 C-139.5889415 -1.39582961 -141.19478348 -0.83475494 -142.8125 -0.3125 C-167.10034056 8.36403268 -190.02228466 23.63766267 -208.8671875 41.05859375 C-211 43 -211 43 -214.0625 45.375 C-222.4802984 52.89728793 -228.76598569 62.66110697 -235 72 C-235.51820313 72.76570313 -236.03640625 73.53140625 -236.5703125 74.3203125 C-239.45063746 78.71841348 -241.23806382 83.04979835 -243 88 C-243.66 88.99 -244.32 89.98 -245 91 C-245.99 91 -246.98 91 -248 91 C-246.50829734 86.0276578 -244.39542583 81.58154261 -242 77 C-241.34 77 -240.68 77 -240 77 C-240.11601562 76.17242187 -240.23203125 75.34484375 -240.3515625 74.4921875 C-239.853396 69.54373364 -237.43263402 66.91993584 -234.375 63.125 C-233.85292969 62.45597656 -233.33085937 61.78695312 -232.79296875 61.09765625 C-231.73948912 59.74764161 -230.67925644 58.40286926 -229.61230469 57.06347656 C-227.41955596 54.25713007 -225.34826997 51.36594422 -223.28369141 48.46435547 C-222.86007324 47.98111816 -222.43645508 47.49788086 -222 47 C-221.34 47 -220.68 47 -220 47 C-219.731875 46.360625 -219.46375 45.72125 -219.1875 45.0625 C-218 43 -218 43 -215 42 C-215 41.34 -215 40.68 -215 40 C-214.34 40 -213.68 40 -213 40 C-213 39.34 -213 38.68 -213 38 C-208.52941176 34 -208.52941176 34 -206 34 C-206 33.34 -206 32.68 -206 32 C-204.01273937 30.40774187 -202.02893663 28.94490224 -199.9375 27.5 C-199.30263672 27.05640137 -198.66777344 26.61280273 -198.01367188 26.15576172 C-196.6742146 25.22360745 -195.33218926 24.29513393 -193.98779297 23.37011719 C-192.15154394 22.10445402 -190.3272814 20.82315875 -188.50390625 19.5390625 C-134.34737985 -18.0922916 -57.79561547 -40.44841895 0 0 Z " fill="#9A553C" transform="translate(351,58)"/>
<path d="M0 0 C7.65368008 5.53637104 12.4459556 12.81385853 14.6875 21.9375 C14.91901452 24.67529382 15.05730027 27.26754423 15.0625 30 C15.08699219 30.68126953 15.11148438 31.36253906 15.13671875 32.06445312 C15.16604172 37.15198896 13.9421932 40.06625289 10.6875 43.9375 C8 44.6875 8 44.6875 4.6875 43.9375 C2.26213914 42.52962786 0.0024791 41.00181115 -2.26171875 39.34765625 C-8.97221769 34.73338936 -20.5845648 36.49990891 -28.3125 37.5625 C-32.93042862 38.49708079 -35.63996339 40.31469924 -38.875 43.6953125 C-40.3125 44.9375 -40.3125 44.9375 -43.3125 44.9375 C-43.8794592 30.55353506 -42.16179257 20.07658243 -32.6484375 9 C-24.43651326 0.30060994 -11.70376689 -6.87793623 0 0 Z " fill="#864A49" transform="translate(209.3125,268.0625)"/>
<path d="M0 0 C10.56000967 5.83043005 19.94809814 14.4367895 24 26 C25.57080885 32.15233468 25.10423099 38.69981579 25 45 C21 45 21 45 18.7265625 43.140625 C15.47046037 40.58425829 12.3303754 39.6636466 8.375 38.75 C7.66859375 38.58306641 6.9621875 38.41613281 6.234375 38.24414062 C-2.12965626 36.38124275 -9.59680152 35.454897 -17.29296875 39.84375 C-19.2201828 41.10701911 -19.2201828 41.10701911 -21.6875 43.25 C-24 45 -24 45 -26.625 45.5 C-29 45 -29 45 -30.75 43.1875 C-34.80714764 36.08749163 -34.22050416 24.71531362 -32.19921875 16.90625 C-28.75153817 9.41850386 -22.69351169 3.43771771 -15.875 -1.0625 C-10.23681775 -2.90103769 -5.37008085 -2.36283558 0 0 Z " fill="#864B49" transform="translate(360,267)"/>
<path d="M0 0 C11.52230164 1.39518475 19.64143443 7.13968635 27 16 C28.65743584 18.57222239 29.89326444 21.15161217 31 24 C31.4125 25.03125 31.825 26.0625 32.25 27.125 C34.43862426 38.43289199 32.74120191 48.31085169 29 59 C19.02476439 54.79871834 13.1824512 42.94617706 8 34 C7.195625 32.74896484 7.195625 32.74896484 6.375 31.47265625 C4.86480912 28.75688686 4.11583956 26.26220482 3.375 23.25 C2.74536341 19.83124926 2.74536341 19.83124926 1 17 C0.76298761 14.14122091 0.57780818 11.30116703 0.4375 8.4375 C0.39431641 7.63119141 0.35113281 6.82488281 0.30664062 5.99414062 C0.20024738 3.99631195 0.09959112 1.9981793 0 0 Z " fill="#F7EBF5" transform="translate(57,241)"/>
<path d="M0 0 C0.495 0.99 0.495 0.99 1 2 C-0.0390625 3.92578125 -0.0390625 3.92578125 -1.625 6.3125 C-11.02957679 21.56493429 -13.26909854 38.45836486 -14 56 C-20.78298035 52.24802605 -26.73521609 47.95927041 -32.65234375 42.953125 C-35.03846135 40.89800657 -35.03846135 40.89800657 -38 39 C-38 38.34 -38 37.68 -38 37 C-38.66 36.01 -39.32 35.02 -40 34 C-40.51212323 27.34239807 -38.16100227 22.04676017 -34 17 C-29.27805364 12.05608181 -24.28727961 8.61709317 -18 6 C-16.90300781 5.54238281 -15.80601563 5.08476562 -14.67578125 4.61328125 C-7.97709574 1.92349004 -7.97709574 1.92349004 -5 1 C-4.34 1.33 -3.68 1.66 -3 2 C-3.62648437 2.72445312 -4.25296875 3.44890625 -4.8984375 4.1953125 C-5.71570313 5.16210938 -6.53296875 6.12890625 -7.375 7.125 C-8.18710938 8.07632813 -8.99921875 9.02765625 -9.8359375 10.0078125 C-11.99216327 12.98916437 -13.04680058 15.47001972 -14 19 C-13.57589844 18.29875 -13.15179688 17.5975 -12.71484375 16.875 C-8.92803255 10.74952078 -4.94096907 5.24133194 0 0 Z " fill="#CA6148" transform="translate(141,230)"/>
<path d="M0 0 C0.66 0 1.32 0 2 0 C7.21759193 10.25592385 12.18467389 20.59558616 16.92666626 31.07958984 C18.66410089 34.91754585 20.41533699 38.74921032 22.1640625 42.58203125 C22.83636384 44.05675743 23.50856797 45.53152793 24.18066406 47.00634766 C24.49297974 47.69166565 24.80529541 48.37698364 25.1270752 49.08306885 C25.8953642 50.7702212 26.66215578 52.45805527 27.42871094 54.14599609 C31.03408308 62.06251578 34.75698645 69.70481758 39.28027344 77.14257812 C45.16180009 86.82658015 48.66620157 95.92927299 51 107 C51.34611328 108.50626953 51.34611328 108.50626953 51.69921875 110.04296875 C55.16156278 126.66713123 54.99573907 141.29620229 46 156 C40.47849547 164.02544263 31.0358952 171.82114213 21.578125 174.75 C21.05734375 174.8325 20.5365625 174.915 20 175 C19.67 176.32 19.34 177.64 19 179 C18.505 177.02 18.505 177.02 18 175 C17.01 175 16.02 175 15 175 C15 174.34 15 173.68 15 173 C16.32451172 172.32517578 16.32451172 172.32517578 17.67578125 171.63671875 C29.83902442 165.20696795 41.34665071 156.20310516 46.8125 143.125 C54.55391091 117.06962272 40.08483424 88.2661037 28.13012695 65.99316406 C23.52766654 57.30587937 19.45267066 48.37416021 15.37841797 39.4309082 C14.8526416 38.28066162 14.32686523 37.13041504 13.78515625 35.9453125 C13.31988525 34.91937988 12.85461426 33.89344727 12.37524414 32.83642578 C11.05627923 30.11607529 9.57475411 27.57812748 8 25 C7.31733062 23.43219655 6.67092053 21.8480831 6.0625 20.25 C4.74880016 16.84148151 3.32519648 13.54511065 1.75 10.25 C0.13606499 6.70060387 -0.40488889 3.94766669 0 0 Z " fill="#97543B" transform="translate(410,139)"/>
<path d="M0 0 C1.9637753 -0.00054597 3.92754643 -0.00674954 5.89131165 -0.01306915 C27.21633389 -0.04409158 49.23272982 0.44709244 70.14099121 5.0691452 C73.14858109 5.66422701 76.15608994 5.92648544 79.21028137 6.15569305 C81.31575012 6.49944305 81.31575012 6.49944305 83.71809387 7.47600555 C86.54652596 8.59036526 89.05289805 8.99198256 92.06575012 9.37444305 C106.66481663 11.48594646 123.24727577 14.58314403 136.31575012 21.49944305 C136.31575012 24.49944305 136.31575012 24.49944305 135.31575012 26.49944305 C133.13569225 25.44978556 131.09238466 24.35595775 129.05403137 23.04656219 C113.60316905 14.31688009 91.17021716 13.06088179 73.92372131 9.96800995 C72.26004329 9.66910157 70.59685821 9.36742725 68.93434143 9.06212616 C27.68196279 1.49742739 -16.196906 1.74972791 -57.68424988 7.49944305 C-59.63957081 7.73335001 -61.59529426 7.96392085 -63.55143738 8.1908493 C-72.76361218 9.31394975 -81.50800539 11.09278071 -90.40837097 13.71794891 C-96.68141111 15.5609121 -103.11720666 17.3252781 -109.68424988 17.49944305 C-110.67424988 16.83944305 -111.66424988 16.17944305 -112.68424988 15.49944305 C-110.01982419 14.67892105 -107.35307712 13.86792 -104.68424988 13.06194305 C-103.94046082 12.8318454 -103.19667175 12.60174774 -102.43034363 12.36467743 C-97.49635566 10.88448104 -92.80302313 10.05845255 -87.68424988 9.49944305 C-85.34607779 8.84995081 -83.01298363 8.18200295 -80.68424988 7.49944305 C-54.2354614 1.36276352 -27.04722009 -0.00335803 0 0 Z " fill="#AE7D69" transform="translate(262.6842498779297,205.50055694580078)"/>
<path d="M0 0 C2.83897517 2.30794384 4.90875106 4.19246308 5.5 7.8671875 C5.7491011 12.25287654 5.54508799 15.19096545 2.75390625 18.69921875 C-2.770937 24.224062 -8.16345731 27.22074321 -16.05859375 27.51171875 C-19.78517543 27.34103562 -21.60888698 27.05706041 -24.93359375 25.26171875 C-27.958852 21.53056691 -28.85678219 19.29849506 -28.68359375 14.44921875 C-27.29957464 8.91314231 -24.58431948 6.3118123 -19.93359375 3.26171875 C-14.18899479 -0.10872861 -6.38672893 -3.71064813 0 0 Z " fill="#EF8964" transform="translate(227.80859375,63.05078125)"/>
<path d="M0 0 C3.82329586 0.5166616 5.37334885 1.25914662 8 4 C8.62745117 4.14123291 9.25490234 4.28246582 9.90136719 4.42797852 C12.31032991 5.0845862 13.27051318 5.89643442 15.015625 7.65234375 C15.80839844 8.44608398 15.80839844 8.44608398 16.6171875 9.25585938 C17.15601563 9.81080078 17.69484375 10.36574219 18.25 10.9375 C18.80429687 11.48857422 19.35859375 12.03964844 19.9296875 12.60742188 C24 16.73287408 24 16.73287408 24 19 C24.66 19 25.32 19 26 19 C27.30932617 20.4777832 27.30932617 20.4777832 28.79296875 22.55078125 C29.33703369 23.30593018 29.88109863 24.0610791 30.44165039 24.83911133 C31.01778076 25.65532959 31.59391113 26.47154785 32.1875 27.3125 C32.77974365 28.14483154 33.3719873 28.97716309 33.98217773 29.8347168 C61.57218932 68.82035533 61.57218932 68.82035533 60.6875 78.375 C60.460625 79.24125 60.23375 80.1075 60 81 C56.71067777 79.35533888 55.93442527 75.73755096 54.5 72.5 C47.85456578 57.98982815 39.55269253 44.75851137 30 32 C29.38382812 31.16984375 28.76765625 30.3396875 28.1328125 29.484375 C21.26955049 20.43878544 13.65277406 12.4548055 5.08984375 5.03125 C4.40019531 4.3609375 3.71054687 3.690625 3 3 C3 2.34 3 1.68 3 1 C2.01 0.67 1.02 0.34 0 0 Z " fill="#9B604A" transform="translate(350,62)"/>
<path d="M0 0 C5.27749285 0.53851968 9.25645564 1.77343836 14 4 C14 4.66 14 5.32 14 6 C14.804375 6.185625 15.60875 6.37125 16.4375 6.5625 C21.36075773 8.54907768 24.95762742 11.60705777 29 15 C30.24136719 16.0209375 30.24136719 16.0209375 31.5078125 17.0625 C35.56656182 20.5078692 38.29440775 22.83857423 40 28 C38.77004051 27.0843974 37.54107614 26.16745797 36.3125 25.25 C35.62800781 24.73953125 34.94351563 24.2290625 34.23828125 23.703125 C32.72855103 22.55435995 31.25287731 21.35960912 29.8125 20.125 C25.99221521 17.23856261 21.88900931 15.03148256 17.6875 12.75 C16.85154297 12.29109375 16.01558594 11.8321875 15.15429688 11.359375 C13.10516812 10.23528151 11.05373835 9.11564244 9 8 C10.20833408 10.48111265 11.47778437 12.77061994 12.9375 15.125 C18.19404331 24.47984457 18.55725233 34.06712747 18.76342773 44.54321289 C18.81290767 46.9573905 18.88844145 49.36980733 18.96679688 51.78320312 C19.00674025 53.32287769 19.04520607 54.86259145 19.08203125 56.40234375 C19.10481644 57.12107162 19.12760162 57.8397995 19.15107727 58.58030701 C19.20958883 62.30799587 19.12800581 63.80799128 17 67 C15.76110882 63.15158217 15.8475514 59.30283749 15.82421875 55.3046875 C15.80100286 53.76821573 15.77688483 52.23175738 15.75195312 50.6953125 C15.71702552 48.29287957 15.68758966 45.89093578 15.67407227 43.48828125 C15.59235522 31.31872739 14.63793938 22.07218848 6.875 12.125 C3.8102311 8.15814818 1.58548969 4.75646908 0 0 Z " fill="#9D563D" transform="translate(397,228)"/>
<path d="M0 0 C0 0.66 0 1.32 0 2 C-0.82910889 2.07516846 -1.65821777 2.15033691 -2.51245117 2.2277832 C-33.45765087 4.72956766 -33.45765087 4.72956766 -63.72412109 11.21850586 C-69.99716123 13.06146904 -76.43295678 14.82583505 -83 15 C-83.99 14.34 -84.98 13.68 -86 13 C-83.33557431 12.179478 -80.66882724 11.36847695 -78 10.5625 C-77.25621094 10.33240234 -76.51242188 10.10230469 -75.74609375 9.86523438 C-70.81210579 8.38503799 -66.11877325 7.5590095 -61 7 C-58.66182791 6.35050775 -56.32873375 5.68255989 -54 5 C-36.11828591 0.99464147 -18.29073168 -0.50964887 0 0 Z " fill="#B16C52" transform="translate(236,208)"/>
<path d="M0 0 C1.96985367 2.9547805 2.70626752 5.12562587 3.6875 8.5 C6.79102572 17.92384451 12.04071579 25.20800215 18.625 32.5 C19.08011963 33.00466797 19.53523926 33.50933594 20.00415039 34.02929688 C22.76522071 36.97897446 25.54531913 38.95462938 29 41 C29 41.66 29 42.32 29 43 C29.7425 43.2475 30.485 43.495 31.25 43.75 C34.21386189 45.09720995 35.77768299 46.66371802 38 49 C25.26875397 47.88833195 17.5077272 38.0302977 9.40625 29.16015625 C3.65453551 22.0241672 1.96360516 14.77520723 0 6 C-0.33 5.34 -0.66 4.68 -1 4 C-0.5625 1.875 -0.5625 1.875 0 0 Z " fill="#9D624A" transform="translate(104,393)"/>
<path d="M0 0 C0.66 0.33 1.32 0.66 2 1 C1.58013101 7.40300207 0.25147274 12.57199071 -2.16015625 18.51953125 C-3.21379941 21.19498903 -3.21379941 21.19498903 -3 25 C-4.12576706 27.82674625 -5.68612036 30.41902492 -7.1875 33.0625 C-7.57486328 33.78244141 -7.96222656 34.50238281 -8.36132812 35.24414062 C-10.67434105 39.36168595 -12.50123178 42.05683457 -17 44 C-17.66 44 -18.32 44 -19 44 C-19.66 45.32 -20.32 46.64 -21 48 C-21.99 48 -22.98 48 -24 48 C-23.41992188 47.31035156 -22.83984375 46.62070312 -22.2421875 45.91015625 C-10.35859265 31.61454462 -3.92855559 18.19541535 0 0 Z " fill="#94543B" transform="translate(435,374)"/>
<path d="M0 0 C0.66 0 1.32 0 2 0 C1.67 2.31 1.34 4.62 1 7 C0.34 7 -0.32 7 -1 7 C-1.2475 7.9075 -1.495 8.815 -1.75 9.75 C-3.04806201 13.12496123 -4.21971841 14.74102121 -7 17 C-7.66 17 -8.32 17 -9 17 C-9.33 17.99 -9.66 18.98 -10 20 C-20.65884788 20.62090376 -20.65884788 20.62090376 -25.375 18.4375 C-29.98085446 14.16063514 -34.10513423 9.62890566 -37 4 C-37 3.34 -37 2.68 -37 2 C-33.35687218 3.4478089 -31.95549586 5.18510547 -29.9375 8.5 C-27.72276805 12.11876626 -26.08880639 14.40319818 -21.8125 15.625 C-14.75299112 16.75539773 -14.75299112 16.75539773 -8.375 14.1875 C-5.05436997 9.73086495 -2.51970928 4.94417182 0 0 Z " fill="#C39B87" transform="translate(292,359)"/>
<path d="M0 0 C1.32 0 2.64 0 4 0 C6 2.5625 6 2.5625 8 6 C8.680625 7.0725 9.36125 8.145 10.0625 9.25 C15.18628962 18.58520927 15.55867906 28.1396221 15.76342773 38.54321289 C15.81290767 40.9573905 15.88844145 43.36980733 15.96679688 45.78320312 C16.00674025 47.32287769 16.04520607 48.86259145 16.08203125 50.40234375 C16.10481644 51.12107162 16.12760162 51.8397995 16.15107727 52.58030701 C16.20958883 56.30799587 16.12800581 57.80799128 14 61 C12.76110882 57.15158217 12.8475514 53.30283749 12.82421875 49.3046875 C12.80100286 47.76821573 12.77688483 46.23175738 12.75195312 44.6953125 C12.71702552 42.29287957 12.68758966 39.89093578 12.67407227 37.48828125 C12.59149753 25.1909975 11.56593332 15.99689566 3.75 5.9375 C0 1.05839416 0 1.05839416 0 0 Z " fill="#A3654C" transform="translate(400,234)"/>
<path d="M0 0 C1.73591292 2.60386938 2.41883818 4.10158955 3.25 7 C6.08574808 15.73410408 10.76204567 23.15704079 16.6796875 30.125 C18 32 18 32 18 35 C17.505 34.505 17.505 34.505 17 34 C16.34 34.66 15.68 35.32 15 36 C11 31.375 11 31.375 11 28 C10.34 28 9.68 28 9 28 C8.82984375 27.36191406 8.6596875 26.72382813 8.484375 26.06640625 C8.24203125 25.24011719 7.9996875 24.41382813 7.75 23.5625 C7.51796875 22.73878906 7.2859375 21.91507812 7.046875 21.06640625 C6.70140625 20.38449219 6.3559375 19.70257813 6 19 C5.02740234 18.76023437 5.02740234 18.76023437 4.03515625 18.515625 C2 18 2 18 0.69921875 15.85546875 C0.36535156 14.97503906 0.03148437 14.09460938 -0.3125 13.1875 C-0.65925781 12.31480469 -1.00601563 11.44210937 -1.36328125 10.54296875 C-2.04212207 7.83177015 -1.91440966 6.59268592 -1 4 C-0.814375 3.2575 -0.62875 2.515 -0.4375 1.75 C-0.293125 1.1725 -0.14875 0.595 0 0 Z " fill="#A56F5C" transform="translate(59,259)"/>
<path d="M0 0 C1.37719165 0.00186897 2.75438398 0.00329061 4.13157654 0.00428772 C7.72687673 0.00807522 11.32213544 0.01787257 14.91741943 0.0289917 C18.59793538 0.03928756 22.27845813 0.04380272 25.95898438 0.04882812 C33.15887292 0.05949886 40.35872748 0.07652907 47.55859375 0.09765625 C47.55859375 0.42765625 47.55859375 0.75765625 47.55859375 1.09765625 C43.10359375 1.59265625 43.10359375 1.59265625 38.55859375 2.09765625 C38.55859375 2.42765625 38.55859375 2.75765625 38.55859375 3.09765625 C31.65756021 3.12320748 24.75653907 3.14060687 17.85546875 3.15258789 C15.51236515 3.15758763 13.16926463 3.1643896 10.82617188 3.1730957 C7.44009641 3.18535364 4.05406252 3.19092831 0.66796875 3.1953125 C-0.36378479 3.20047379 -1.39553833 3.20563507 -2.45855713 3.21095276 C-9.49864883 3.21148443 -16.43548379 2.78355925 -23.44140625 2.09765625 C-23.44140625 1.76765625 -23.44140625 1.43765625 -23.44140625 1.09765625 C-15.60752362 0.02212557 -7.89960393 -0.03113034 0 0 Z " fill="#BF9788" transform="translate(247.44140625,205.90234375)"/>
<path d="M0 0 C6.03962931 -0.21962288 11.17253147 0.45004923 17 2 C18.14597656 2.30292969 19.29195313 2.60585937 20.47265625 2.91796875 C26.31069679 4.52020701 31.63706615 6.14356634 37 9 C37 12 37 12 36 14 C33.82827765 12.95435591 31.79791076 11.86881927 29.7734375 10.5546875 C26.66540857 8.8124403 23.74457063 7.88679613 20.3125 6.9375 C19.0853125 6.5971875 17.858125 6.256875 16.59375 5.90625 C12.74636441 4.93603972 8.91125724 4.17664184 4.98828125 3.58984375 C2.62103647 2.88757664 1.58484667 1.85653467 0 0 Z " fill="#AF7158" transform="translate(362,218)"/>
<path d="M0 0 C2 3 2 3 1.9375 5.5 C1 8 1 8 -1.25 9.875 C-4.43662938 11.17862111 -5.80196842 11.21006601 -9 10 C-11 7 -11 7 -10.8125 4.4375 C-9.04699846 -0.85900461 -4.82943898 -0.43903991 0 0 Z " fill="#EF8763" transform="translate(249,57)"/>
<path d="M0 0 C0 0.66 0 1.32 0 2 C-4.2134187 2.40936515 -8.42688083 2.81827971 -12.64038086 3.22680664 C-14.06877781 3.3653597 -15.49716356 3.50402826 -16.92553711 3.64282227 C-25.28137266 4.45466599 -33.63793722 5.25435958 -42 6 C-42.66 5.01 -43.32 4.02 -44 3 C-29.22984313 0.71237993 -14.94406307 -0.41639804 0 0 Z " fill="#AD7B67" transform="translate(236,208)"/>
<path d="M0 0 C0.66 0.33 1.32 0.66 2 1 C1.31292969 2.02480469 0.62585938 3.04960938 -0.08203125 4.10546875 C-0.99224954 5.46610433 -1.90240233 6.82678373 -2.8125 8.1875 C-3.26431641 8.86103516 -3.71613281 9.53457031 -4.18164062 10.22851562 C-9.03179873 17.32778046 -9.03179873 17.32778046 -12.5625 25.125 C-13.4977145 27.84082063 -14.36069893 29.5410484 -16 32 C-16.99 32 -17.98 32 -19 32 C-17.50829734 27.0276578 -15.39542583 22.58154261 -13 18 C-12.34 18 -11.68 18 -11 18 C-11.165 17.175 -11.33 16.35 -11.5 15.5 C-10.82080006 10.74560041 -8.51022315 9.07484723 -5.04296875 5.9296875 C-3.08533605 4.08060422 -1.54743086 2.19666841 0 0 Z " fill="#9B5F49" transform="translate(122,117)"/>
<path d="M0 0 C0 0.99 0 1.98 0 3 C-2.05931468 5.00349873 -4.0946339 6.81488187 -6.3125 8.625 C-6.90740234 9.12773438 -7.50230469 9.63046875 -8.11523438 10.1484375 C-10.71287453 12.30781658 -12.76887899 13.92295966 -16 15 C-16.33 15.66 -16.66 16.32 -17 17 C-17.33 17.66 -17.66 18.32 -18 19 C-18.99 19.33 -19.98 19.66 -21 20 C-22.05021103 21.84971696 -22.05021103 21.84971696 -23 24 C-23.495 24.639375 -23.99 25.27875 -24.5 25.9375 C-26.13028535 27.97542661 -26.13028535 27.97542661 -26.9375 30.625 C-28.24987593 33.55854619 -29.1482746 33.6963541 -32 35 C-33.70496537 36.62746694 -35.37897032 38.28891311 -37 40 C-35.41213857 36.51164121 -33.33428426 33.57981181 -31.0625 30.5 C-30.37285156 29.5615625 -29.68320313 28.623125 -28.97265625 27.65625 C-28.32167969 26.7796875 -27.67070313 25.903125 -27 25 C-26.19369141 23.83984375 -26.19369141 23.83984375 -25.37109375 22.65625 C-24.91863281 22.1096875 -24.46617187 21.563125 -24 21 C-23.34 21 -22.68 21 -22 21 C-21.731875 20.360625 -21.46375 19.72125 -21.1875 19.0625 C-20 17 -20 17 -17 16 C-17 15.34 -17 14.68 -17 14 C-16.34 14 -15.68 14 -15 14 C-15 13.34 -15 12.68 -15 12 C-10.52941176 8 -10.52941176 8 -8 8 C-8 7.34 -8 6.68 -8 6 C-6.25 4.4921875 -6.25 4.4921875 -4 2.875 C-3.2575 2.33617188 -2.515 1.79734375 -1.75 1.2421875 C-0.88375 0.62730469 -0.88375 0.62730469 0 0 Z " fill="#94543C" transform="translate(153,84)"/>
<path d="M0 0 C0.66 0.66 1.32 1.32 2 2 C1.18917969 2.60585937 0.37835938 3.21171875 -0.45703125 3.8359375 C-11.12004074 11.87288525 -21.21567912 20.00099371 -29 31 C-29.33 30.01 -29.66 29.02 -30 28 C-26.78622387 21.81448946 -21.25137407 17.38892213 -16 13 C-14.47605502 11.62844952 -12.95526886 10.25338192 -11.4375 8.875 C-7.78935455 5.61953687 -4.03995735 2.75060926 0 0 Z " fill="#A36B58" transform="translate(156,84)"/>
<path d="M0 0 C0.66 0.66 1.32 1.32 2 2 C-0.72444191 3.79893099 -3.45534125 5.58781521 -6.1875 7.375 C-7.34088867 8.13683594 -7.34088867 8.13683594 -8.51757812 8.9140625 C-16.2851047 13.98129014 -16.2851047 13.98129014 -20 15 C-20.99 14.67 -21.98 14.34 -23 14 C-19.62344179 11.22290321 -16.18587014 8.72525989 -12.5 6.375 C-11.5821875 5.78460938 -10.664375 5.19421875 -9.71875 4.5859375 C-7.18887071 3.11017458 -4.73793636 2.02203789 -2 1 C-1.34 0.67 -0.68 0.34 0 0 Z " fill="#995C45" transform="translate(177,70)"/>
<path d="M0 0 C2.5 0.25 2.5 0.25 4.5 2.25 C4.75 5.25 4.75 5.25 4.5 8.25 C2.5 10.25 2.5 10.25 0 10.5 C-2.5 10.25 -2.5 10.25 -4.5 8.25 C-4.75 5.25 -4.75 5.25 -4.5 2.25 C-2.5 0.25 -2.5 0.25 0 0 Z " fill="#F7F4F4" transform="translate(186.5,275.75)"/>
<path d="M0 0 C2.71551488 2.71551488 2.3309682 4.19565207 2.375 8 C2.21737131 19.76152506 -0.70639231 31.09989567 -5 42 C-5.99 41.67 -6.98 41.34 -8 41 C-7.01 40.505 -7.01 40.505 -6 40 C-5.18864483 37.43268274 -4.49984117 34.92526177 -3.875 32.3125 C-3.69324219 31.60416016 -3.51148438 30.89582031 -3.32421875 30.16601562 C-2.30670498 26.02328098 -1.79690902 22.29875903 -2 18 C-1.34 18 -0.68 18 0 18 C0 12.06 0 6.12 0 0 Z " fill="#93543B" transform="translate(438,355)"/>
<path d="M0 0 C0.66 0 1.32 0 2 0 C1.67 2.31 1.34 4.62 1 7 C0.34 7 -0.32 7 -1 7 C-1.309375 8.3303125 -1.309375 8.3303125 -1.625 9.6875 C-3.54297245 14.30806999 -6.47829987 16.73914994 -11 19 C-12.70702735 19.06996014 -14.41668003 19.08440154 -16.125 19.0625 C-17.03507812 19.05347656 -17.94515625 19.04445313 -18.8828125 19.03515625 C-19.93082031 19.01775391 -19.93082031 19.01775391 -21 19 C-21 18.67 -21 18.34 -21 18 C-20.33613281 17.91363281 -19.67226563 17.82726562 -18.98828125 17.73828125 C-13.10635278 16.80232475 -9.66986027 15.99508759 -6 11 C-3.88049763 7.39125496 -1.90015278 3.72847848 0 0 Z " fill="#AB7760" transform="translate(292,359)"/>
<path d="M0 0 C1.45371647 4.60343549 0.01664804 7.79134321 -2 12 C-4.24209986 16.05665961 -6.59121679 20.04035637 -9 24 C-9.33 23.34 -9.66 22.68 -10 22 C-10.66 21.67 -11.32 21.34 -12 21 C-11.38511719 20.27296875 -11.38511719 20.27296875 -10.7578125 19.53125 C-6.91116613 14.74594829 -5.07957806 11.04563713 -4 5 C-3.34 5 -2.68 5 -2 5 C-2 3.68 -2 2.36 -2 1 C-1.34 0.67 -0.68 0.34 0 0 Z " fill="#9F634B" transform="translate(129,299)"/>
<path d="M0 0 C2.66740923 0.11518358 5.33347241 0.24189546 8 0.375 C8.74378906 0.4059375 9.48757813 0.436875 10.25390625 0.46875 C15.40567483 0.73753793 20.02992756 1.61063884 25 3 C24.01 4.485 24.01 4.485 23 6 C16.25390382 5.33644956 9.65551466 4.28134207 3 3 C3 2.34 3 1.68 3 1 C2.01 0.67 1.02 0.34 0 0 Z " fill="#B58774" transform="translate(341,214)"/>
<path d="M0 0 C0.33 0 0.66 0 1 0 C2.12717003 6.22574928 2.41716594 12.37610086 2.6875 18.6875 C2.74744141 19.82767578 2.80738281 20.96785156 2.86914062 22.14257812 C2.91619141 23.23376953 2.96324219 24.32496094 3.01171875 25.44921875 C3.05772217 26.44268311 3.10372559 27.43614746 3.15112305 28.4597168 C3 31 3 31 1 34 C-0.15792475 30.3298994 -0.11388663 26.87724396 -0.09765625 23.046875 C-0.0962413 22.38665344 -0.09482635 21.72643188 -0.09336853 21.04620361 C-0.08779245 18.94742206 -0.07524447 16.84874905 -0.0625 14.75 C-0.0574819 13.32291821 -0.05291954 11.89583475 -0.04882812 10.46875 C-0.03783088 6.97913168 -0.0205828 3.48957644 0 0 Z " fill="#A66B53" transform="translate(413,261)"/>
<path d="M0 0 C0.66 0.33 1.32 0.66 2 1 C1.58013101 7.40300207 0.25147274 12.57199071 -2.16015625 18.51953125 C-3.21379941 21.19498903 -3.21379941 21.19498903 -3 25 C-4.65 25.33 -6.3 25.66 -8 26 C-6.64410332 21.75921678 -5.28207169 17.62055771 -3.4375 13.5625 C-1.64619578 9.12318085 -0.8044587 4.70371734 0 0 Z " fill="#A9735D" transform="translate(435,374)"/>
<path d="M0 0 C3.93243082 5.89864623 5.44895473 11.96637582 5 19 C2 18 2 18 0.796875 15.85546875 C0.45140625 14.97503906 0.1059375 14.09460938 -0.25 13.1875 C-0.60578125 12.31480469 -0.9615625 11.44210937 -1.328125 10.54296875 C-2.04782334 7.81899422 -1.92617134 6.61011922 -1 4 C-0.814375 3.2575 -0.62875 2.515 -0.4375 1.75 C-0.293125 1.1725 -0.14875 0.595 0 0 Z " fill="#9E6550" transform="translate(59,259)"/>
<path d="M0 0 C1 2 1 2 0.44140625 3.92578125 C0.15136719 4.71339844 -0.13867188 5.50101563 -0.4375 6.3125 C-2.4443098 12.54273223 -2.2743462 18.51730096 -2 25 C-2.99 24.34 -3.98 23.68 -5 23 C-5.49725806 20.45713543 -5.78452531 18.18914716 -5.9375 15.625 C-6.00517578 14.95210937 -6.07285156 14.27921875 -6.14257812 13.5859375 C-6.38019777 10.08707427 -6.34312098 8.41789479 -4.08203125 5.6640625 C-3.39496094 5.11492187 -2.70789062 4.56578125 -2 4 C-0.76487921 1.86690808 -0.76487921 1.86690808 0 0 Z " fill="#AA654F" transform="translate(60,228)"/>
<path d="M0 0 C2.52689194 3.21887158 4.61942974 6.59584027 6.6875 10.125 C7.31011719 11.17945313 7.93273437 12.23390625 8.57421875 13.3203125 C10 16 10 16 10 18 C9.34 18 8.68 18 8 18 C7.67 18.66 7.34 19.32 7 20 C6.76925781 19.35933594 6.53851563 18.71867187 6.30078125 18.05859375 C4.15114315 12.35737966 1.75519412 7.7983036 -2 3 C-1 1 -1 1 0 0 Z " fill="#AF735C" transform="translate(417,294)"/>
<path d="M0 0 C6.258654 -0.5326514 10.45108785 1.18150494 16 4 C16 7 16 7 15 9 C11.69918209 7.38102741 8.47442567 5.64075691 5.25 3.875 C4.26515625 3.33617187 3.2803125 2.79734375 2.265625 2.2421875 C1.51796875 1.83226562 0.7703125 1.42234375 0 1 C0 0.67 0 0.34 0 0 Z " fill="#AB5F46" transform="translate(383,223)"/>
<path d="M0 0 C1.1653125 0.07863281 2.330625 0.15726562 3.53125 0.23828125 C6.5 0.6875 6.5 0.6875 8.5 2.6875 C5.85327702 4.01086149 3.50673569 4.10020467 0.5625 4.375 C-0.49839844 4.48199219 -1.55929688 4.58898437 -2.65234375 4.69921875 C-5.5 4.6875 -5.5 4.6875 -8.5 2.6875 C-8.5 2.0275 -8.5 1.3675 -8.5 0.6875 C-5.5911057 -0.76694715 -3.22143174 -0.23875656 0 0 Z " fill="#9D634A" transform="translate(228.5,463.3125)"/>
<path d="M0 0 C2.5 0.125 2.5 0.125 3.5 1.125 C3.54092937 3.45797433 3.54241723 5.79205225 3.5 8.125 C1.125 8.25 1.125 8.25 -1.5 8.125 C-3.5 6.125 -3.5 6.125 -3.6875 3.5625 C-3.4324847 0.24730106 -3.33009823 0.16650491 0 0 Z " fill="#EAE0E0" transform="translate(343.5,273.875)"/>
<path d="M0 0 C0.66 0 1.32 0 2 0 C2.1968999 2.35371114 2.38270974 4.7074695 2.5625 7.0625 C2.66691406 8.37347656 2.77132813 9.68445313 2.87890625 11.03515625 C2.99765619 14.92325897 2.66866216 18.19110223 2 22 C1.34 22 0.68 22 0 22 C0 14.74 0 7.48 0 0 Z " fill="#A46D56" transform="translate(436,351)"/>
<path d="M0 0 C0.66 0.33 1.32 0.66 2 1 C0.57512189 3.34193802 -0.86369923 5.67293396 -2.3125 8 C-2.71662109 8.66773437 -3.12074219 9.33546875 -3.53710938 10.0234375 C-4.6113438 11.73522569 -5.79941276 13.37433438 -7 15 C-7.99 15 -8.98 15 -10 15 C-10.33 14.01 -10.66 13.02 -11 12 C-10.45730469 11.46890625 -9.91460937 10.9378125 -9.35546875 10.390625 C-8.64003906 9.68421875 -7.92460938 8.9778125 -7.1875 8.25 C-6.47980469 7.55390625 -5.77210937 6.8578125 -5.04296875 6.140625 C-3.17724121 4.18571355 -1.56830358 2.19661447 0 0 Z " fill="#985B43" transform="translate(122,117)"/>
<path d="M0 0 C0.66 0.33 1.32 0.66 2 1 C-4.27 7.27 -10.54 13.54 -17 20 C-17.66 19.67 -18.32 19.34 -19 19 C-13.30628533 12.54790121 -7.63191855 6.50639713 -1 1 C-0.67 0.67 -0.34 0.34 0 0 Z " fill="#E8D5D8" transform="translate(147,93)"/>
<path d="M0 0 C-5.84758937 3.89839291 -13.10611082 4.29973431 -20 4 C-20.33 3.34 -20.66 2.68 -21 2 C-13.87049629 0.09879901 -7.36259293 -0.22424141 0 0 Z " fill="#AC634A" transform="translate(197,212)"/>
<path d="M0 0 C0.66 0 1.32 0 2 0 C1.938125 0.639375 1.87625 1.27875 1.8125 1.9375 C2.03271135 5.53428536 3.03572783 8.44258434 4.24609375 11.81640625 C4.95253425 13.86252148 5.50797113 15.89335214 6 18 C1.64329582 14.54468289 0.11346767 10.3031257 -1 5 C-0.6875 1.9375 -0.6875 1.9375 0 0 Z " fill="#94553C" transform="translate(102,393)"/>
<path d="M0 0 C0 0.33 0 0.66 0 1 C-9.405 1.99 -9.405 1.99 -19 3 C-19.66 2.01 -20.32 1.02 -21 0 C-13.87028851 -1.25818438 -7.18050184 -0.71148265 0 0 Z " fill="#B38472" transform="translate(213,211)"/>
<path d="M0 0 C3.59981466 1.44775155 5.15103283 3.20954292 7.25 6.4375 C7.77078125 7.21996094 8.2915625 8.00242187 8.828125 8.80859375 C10 11 10 11 10 14 C5.3478325 10.80994228 2.53009634 6.97406173 0 2 C0 1.34 0 0.68 0 0 Z " fill="#AE7B65" transform="translate(255,361)"/>
<path d="M0 0 C0.66 0.165 1.32 0.33 2 0.5 C1 2 1 2 -1 3.5 C-5.8585734 3.81859498 -10.21414833 3.45717033 -15 2.5 C-10.71096024 -1.78903976 -5.52501991 -0.92083665 0 0 Z " fill="#C29C8B" transform="translate(311,207.5)"/>
<path d="M0 0 C0.33 0 0.66 0 1 0 C1.33 7.92 1.66 15.84 2 24 C1.01 24.33 0.02 24.66 -1 25 C-1.33 24.01 -1.66 23.02 -2 22 C-1.67 21.34 -1.34 20.68 -1 20 C-0.84876169 18.4804236 -0.75118307 16.95527498 -0.68359375 15.4296875 C-0.64169922 14.53378906 -0.59980469 13.63789063 -0.55664062 12.71484375 C-0.49766602 11.30912109 -0.49766602 11.30912109 -0.4375 9.875 C-0.39431641 8.93011719 -0.35113281 7.98523438 -0.30664062 7.01171875 C-0.20040928 4.67462908 -0.09836824 2.3374317 0 0 Z " fill="#A36C54" transform="translate(102,369)"/>
<path d="M0 0 C0.99 0.33 1.98 0.66 3 1 C2.34 4.96 1.68 8.92 1 13 C-0.32 11.68 -1.64 10.36 -3 9 C-2.01 6.03 -1.02 3.06 0 0 Z " fill="#9D624A" transform="translate(103,352)"/>
<path d="M0 0 C0.66 0.99 1.32 1.98 2 3 C1.33915417 5.33498858 0.67188497 7.66816393 0 10 C0.30280805 13.93650463 0.79172692 15.68759039 3 19 C0.525 18.01 0.525 18.01 -2 17 C-2.3690205 5.47835991 -2.3690205 5.47835991 0 0 Z " fill="#AD5A41" transform="translate(102,250)"/>
<path d="M0 0 C1.12377697 3.30435084 0.89554742 5.0506862 -0.4375 8.25 C-0.72496094 8.95640625 -1.01242188 9.6628125 -1.30859375 10.390625 C-1.53675781 10.92171875 -1.76492187 11.4528125 -2 12 C-4 10 -4 10 -4.125 7.375 C-4.08375 6.59125 -4.0425 5.8075 -4 5 C-3.34 5 -2.68 5 -2 5 C-2 3.68 -2 2.36 -2 1 C-1.34 0.67 -0.68 0.34 0 0 Z " fill="#A86E57" transform="translate(129,299)"/>
<path d="M0 0 C3.79588866 0.54226981 5.47211993 2.20127563 8 5 C7.67 5.66 7.34 6.32 7 7 C6.67 6.67 6.34 6.34 6 6 C5.34 6.66 4.68 7.32 4 8 C0 3.375 0 3.375 0 0 Z " fill="#9F6550" transform="translate(70,287)"/>
<path d="M0 0 C5.80165739 0.97458672 10.83982722 2.01253155 16 5 C12.11764181 6.49828872 9.56550712 5.43110582 5.75 4.0625 C4.67234375 3.68222656 3.5946875 3.30195313 2.484375 2.91015625 C1.66453125 2.60980469 0.8446875 2.30945313 0 2 C0 1.34 0 0.68 0 0 Z " fill="#93543B" transform="translate(162,453)"/>
<path d="M0 0 C0.66 0.33 1.32 0.66 2 1 C-0.28026001 4.42039001 -0.3867577 4.12406247 -4 5 C-4.495 5.495 -4.99 5.99 -5.5 6.5 C-7.30270087 8.30270087 -8.47598128 8.75574012 -11 9 C-11.66 8.34 -12.32 7.68 -13 7 C-12.14535156 6.57847656 -11.29070312 6.15695312 -10.41015625 5.72265625 C-9.30542969 5.17480469 -8.20070313 4.62695312 -7.0625 4.0625 C-5.96035156 3.51722656 -4.85820312 2.97195313 -3.72265625 2.41015625 C-1.15205586 1.25295022 -1.15205586 1.25295022 0 0 Z " fill="#A8745C" transform="translate(395,435)"/>
<path d="M0 0 C3.45303547 1.15101182 4.72158051 2.18994929 7 5 C7.75 8.25 7.75 8.25 8 11 C7.01 11.495 7.01 11.495 6 12 C4.99466333 10.37829621 3.99588093 8.75252763 3 7.125 C2.443125 6.22007813 1.88625 5.31515625 1.3125 4.3828125 C0 2 0 2 0 0 Z " fill="#A06753" transform="translate(391,108)"/>
<path d="M0 0 C0.99 0.33 1.98 0.66 3 1 C4.98834962 5.39529916 5.19118486 9.22037853 5 14 C2.99006295 10.98509443 2.27376659 8.7850073 1.375 5.3125 C1.11460937 4.31863281 0.85421875 3.32476562 0.5859375 2.30078125 C0.39257812 1.54152344 0.19921875 0.78226562 0 0 Z " fill="#AA765F" transform="translate(428,321)"/>
<path d="M0 0 C6.6 0 13.2 0 20 0 C20 0.33 20 0.66 20 1 C12.74 1.66 5.48 2.32 -2 3 C-1.34 2.67 -0.68 2.34 0 2 C0 1.34 0 0.68 0 0 Z " fill="#C19C95" transform="translate(180,303)"/>
<path d="M0 0 C0.33 0.66 0.66 1.32 1 2 C-0.25 4.5625 -0.25 4.5625 -2 7 C-2.99 7.33 -3.98 7.66 -5 8 C-5 4 -5 4 -3 1 C-2.01 0.67 -1.02 0.34 0 0 Z " fill="#995C43" transform="translate(430,399)"/>
<path d="M0 0 C0.66 0.66 1.32 1.32 2 2 C0.54550599 3.0055761 -0.91372443 4.00430435 -2.375 5 C-3.59316406 5.8353125 -3.59316406 5.8353125 -4.8359375 6.6875 C-7 8 -7 8 -9 8 C-7.50164772 3.33845958 -4.11536409 2.13389249 0 0 Z " fill="#A1583E" transform="translate(177,70)"/>
<path d="M0 0 C0.33 0 0.66 0 1 0 C1.33 2.31 1.66 4.62 2 7 C1.01 6.67 0.02 6.34 -1 6 C-1.33 8.64 -1.66 11.28 -2 14 C-2.33 14 -2.66 14 -3 14 C-2.88512252 12.41590006 -2.75765492 10.83271037 -2.625 9.25 C-2.55539063 8.36828125 -2.48578125 7.4865625 -2.4140625 6.578125 C-2.00149945 4.00933618 -1.28839043 2.24158985 0 0 Z " fill="#94553C" transform="translate(104,346)"/>
<path d="M0 0 C3.465 1.485 3.465 1.485 7 3 C7 3.66 7 4.32 7 5 C7.99 5 8.98 5 10 5 C10.33 5.99 10.66 6.98 11 8 C6.89160936 6.54997977 3.49655387 4.6020866 0 2 C0 1.34 0 0.68 0 0 Z " fill="#93543B" transform="translate(135,439)"/>
<path d="M0 0 C0 0.66 0 1.32 0 2 C-1.2065625 2.433125 -1.2065625 2.433125 -2.4375 2.875 C-5.1326468 3.73262568 -5.1326468 3.73262568 -6 6 C-6 4.68 -6 3.36 -6 2 C-6.99 1.67 -7.98 1.34 -9 1 C-5.8035914 -0.06546953 -3.34252724 -0.07427838 0 0 Z " fill="#A66148" transform="translate(153,222)"/>
<path d="M0 0 C0.66 0 1.32 0 2 0 C2.8638129 1.45264038 3.71580454 2.9123163 4.5625 4.375 C5.27599609 5.59316406 5.27599609 5.59316406 6.00390625 6.8359375 C6.33261719 7.55007812 6.66132813 8.26421875 7 9 C6.67 9.66 6.34 10.32 6 11 C5.34 10.01 4.68 9.02 4 8 C3.01 7.67 2.02 7.34 1 7 C0.67 4.69 0.34 2.38 0 0 Z " fill="#965740" transform="translate(397,115)"/>
<path d="M0 0 C0.33 0.66 0.66 1.32 1 2 C1.66 2 2.32 2 3 2 C2.67 3.65 2.34 5.3 2 7 C2.66 7 3.32 7 4 7 C3.67 8.98 3.34 10.96 3 13 C2.67 13 2.34 13 2 13 C1.66127487 11.58461283 1.32925376 10.16762037 1 8.75 C0.814375 7.96109375 0.62875 7.1721875 0.4375 6.359375 C0 4 0 4 0 0 Z " fill="#B07E68" transform="translate(433,337)"/>
<path d="M0 0 C1.9078584 3.1749094 2.1609041 5.10585211 1.625 8.75 C1.51414062 9.54921875 1.40328125 10.3484375 1.2890625 11.171875 C1.19367188 11.77515625 1.09828125 12.3784375 1 13 C-0.9078584 9.8250906 -1.1609041 7.89414789 -0.625 4.25 C-0.51414062 3.45078125 -0.40328125 2.6515625 -0.2890625 1.828125 C-0.19367188 1.22484375 -0.09828125 0.6215625 0 0 Z " fill="#B37862" transform="translate(414,282)"/>
<path d="M0 0 C0.33 0.66 0.66 1.32 1 2 C0.22265625 3.7265625 0.22265625 3.7265625 -0.9375 5.625 C-1.618125 6.73875 -2.29875 7.8525 -3 9 C-3.99 9 -4.98 9 -6 9 C-5.67 7.68 -5.34 6.36 -5 5 C-4.01 5 -3.02 5 -2 5 C-2 3.68 -2 2.36 -2 1 C-1.34 0.67 -0.68 0.34 0 0 Z " fill="#A77361" transform="translate(109,140)"/>
<path d="M0 0 C4.40114397 0.50298788 6.71195019 2.08772731 10 5 C9.67 5.99 9.34 6.98 9 8 C6.95880212 6.38405168 4.95927063 4.7143618 3 3 C3 2.34 3 1.68 3 1 C2.01 0.67 1.02 0.34 0 0 Z " fill="#A46A57" transform="translate(350,62)"/>
<path d="M0 0 C0.33 1.32 0.66 2.64 1 4 C-2.63 3.01 -6.26 2.02 -10 1 C-5.64467851 -1.17766075 -4.53374042 -1.03039555 0 0 Z " fill="#B47960" transform="translate(385,222)"/>
<path d="M0 0 C1.90318884 2.85478326 2.4619099 4.41941308 3.125 7.6875 C3.29257813 8.49574219 3.46015625 9.30398438 3.6328125 10.13671875 C3.75398438 10.75160156 3.87515625 11.36648438 4 12 C3.01 11.67 2.02 11.34 1 11 C-0.47694566 7.08609399 -1.60226148 4.00565371 0 0 Z " fill="#B68771" transform="translate(104,393)"/>
<path d="M0 0 C0.66 0.33 1.32 0.66 2 1 C1.01 3.97 0.02 6.94 -1 10 C-1.66 10 -2.32 10 -3 10 C-2.67 7.36 -2.34 4.72 -2 2 C-1.34 2 -0.68 2 0 2 C0 1.34 0 0.68 0 0 Z " fill="#9F654E" transform="translate(108,341)"/>
<path d="M0 0 C-2.39763185 2.39763185 -3.33273498 2.34280586 -6.625 2.625 C-7.44226563 2.69976562 -8.25953125 2.77453125 -9.1015625 2.8515625 C-9.72804687 2.90054688 -10.35453125 2.94953125 -11 3 C-9 0 -9 0 -7.1875 -0.75 C-4.59271 -1.04654743 -2.52136205 -0.63034051 0 0 Z " fill="#B17E66" transform="translate(180,216)"/>
<path d="M0 0 C1.32 0.66 2.64 1.32 4 2 C3.67 3.32 3.34 4.64 3 6 C-0.875 4.25 -0.875 4.25 -2 2 C-1.34 2 -0.68 2 0 2 C0 1.34 0 0.68 0 0 Z " fill="#AA6A51" transform="translate(395,226)"/>
<path d="M0 0 C0.66 0 1.32 0 2 0 C1.34 2.97 0.68 5.94 0 9 C-0.99 8.67 -1.98 8.34 -3 8 C-1.125 1.125 -1.125 1.125 0 0 Z " fill="#9C604A" transform="translate(103,149)"/>
<path d="M0 0 C0.66 0.33 1.32 0.66 2 1 C0.35 3.64 -1.3 6.28 -3 9 C-3.66 8.67 -4.32 8.34 -5 8 C-3.62845496 5.04590299 -2.01136276 2.55991624 0 0 Z " fill="#A36C58" transform="translate(122,117)"/>
<path d="M0 0 C2.32472205 2.85306797 3.7508258 5.54074837 5 9 C2.09303901 7.93411431 1.15567038 7.29651501 -0.3125 4.5 C-1 2 -1 2 0 0 Z " fill="#AA7665" transform="translate(64,273)"/>
<path d="M0 0 C-1.45381897 0.69699552 -2.91322953 1.38233866 -4.375 2.0625 C-5.18710937 2.44535156 -5.99921875 2.82820313 -6.8359375 3.22265625 C-7.55007813 3.47917969 -8.26421875 3.73570312 -9 4 C-9.66 3.67 -10.32 3.34 -11 3 C-7.56065558 -0.95524608 -4.91824601 -1.35534128 0 0 Z " fill="#95605D" transform="translate(349,268)"/>
<path d="M0 0 C0.33 0.99 0.66 1.98 1 3 C0.01 3.33 -0.98 3.66 -2 4 C-3.20882096 6.00016466 -3.20882096 6.00016466 -4 8 C-4.99 8 -5.98 8 -7 8 C-4.69 5.36 -2.38 2.72 0 0 Z " fill="#AA775F" transform="translate(418,414)"/>
<path d="M0 0 C0.99 1.32 1.98 2.64 3 4 C2.34 5.32 1.68 6.64 1 8 C-0.5625 5.625 -0.5625 5.625 -2 3 C-1 1 -1 1 0 0 Z " fill="#B37963" transform="translate(417,294)"/>
<path d="M0 0 C0.99 0.33 1.98 0.66 3 1 C-0.465 3.97 -0.465 3.97 -4 7 C-3.04065919 3.16263678 -2.76390737 2.40339772 0 0 Z " fill="#A87361" transform="translate(143,94)"/>
<path d="M0 0 C0.75 1.75 0.75 1.75 1 4 C-0.9375 6.25 -0.9375 6.25 -3 8 C-3 4.42424104 -1.91159393 2.94704065 0 0 Z " fill="#A7725A" transform="translate(423,406)"/>
<path d="M0 0 C0.66 0 1.32 0 2 0 C1.67 2.31 1.34 4.62 1 7 C0.01 6.34 -0.98 5.68 -2 5 C-1.34 3.35 -0.68 1.7 0 0 Z " fill="#C59E8A" transform="translate(292,359)"/>
<path d="M0 0 C2 0.3125 2 0.3125 4 1 C4.33 1.66 4.66 2.32 5 3 C4.236875 3.12375 3.47375 3.2475 2.6875 3.375 C-0.20267136 3.88102792 -0.20267136 3.88102792 -3 6 C-1.125 1.125 -1.125 1.125 0 0 Z " fill="#F1D6D9" transform="translate(350,64)"/>
<path d="M0 0 C2.5625 1.25 2.5625 1.25 5 3 C5.33 3.99 5.66 4.98 6 6 C2.62496331 4.8141763 0.35277269 3.72426311 -2 1 C-1.34 0.67 -0.68 0.34 0 0 Z " fill="#A95B40" transform="translate(337,51)"/>
</svg>
